<svg width="50" height="50" fill="none" xmlns="http://www.w3.org/2000/svg"><rect width="50" height="50" rx="25" fill="#E8F2EE"/><path d="M35.5 30.157v4.125a1.167 1.167 0 0 1-1.085 1.164c-.51.035-.926.054-1.248.054-10.31 0-18.667-8.357-18.667-18.667 0-.322.018-.738.054-1.248a1.167 1.167 0 0 1 1.164-1.085h4.125a.584.584 0 0 1 .581.525c.027.268.052.482.075.644a16.22 16.22 0 0 0 1.41 4.668.531.531 0 0 1-.172.661l-2.518 1.8a15.221 15.221 0 0 0 7.985 7.984L29 28.269a.539.539 0 0 1 .669-.174 16.22 16.22 0 0 0 4.667 1.406c.162.023.375.049.641.075a.583.583 0 0 1 .524.58H35.5Z" fill="#5BB5A2"/></svg>