<svg width="50" height="50" viewBox="0 0 50 50" fill="none" xmlns="http://www.w3.org/2000/svg">
<rect width="50" height="50" rx="10" fill="#5BB5A2"/>
<path d="M22.1156 37.4689C20.8437 37.4689 19.7308 37.2304 18.7769 36.7535C17.823 36.2765 17.0508 35.6065 16.4603 34.7435L15.9833 37.0601H12.0996V12.5312H16.4603V22.5813C17.0054 21.8318 17.7208 21.1731 18.6066 20.6053C19.515 20.0375 20.6847 19.7536 22.1156 19.7536C23.7054 19.7536 25.1249 20.1397 26.374 20.9119C27.6232 21.6841 28.6112 22.7402 29.3379 24.0802C30.0647 25.4202 30.4281 26.9419 30.4281 28.6453C30.4281 30.3487 30.0647 31.8704 29.3379 33.2104C28.6112 34.5277 27.6232 35.5725 26.374 36.3447C25.1249 37.0942 23.7054 37.4689 22.1156 37.4689ZM21.1957 33.6533C22.5811 33.6533 23.7281 33.1877 24.6366 32.2565C25.545 31.3253 25.9993 30.1216 25.9993 28.6453C25.9993 27.1691 25.545 25.954 24.6366 25.0001C23.7281 24.0462 22.5811 23.5692 21.1957 23.5692C19.7876 23.5692 18.6293 24.0462 17.7208 25.0001C16.835 25.9313 16.3922 27.135 16.3922 28.6113C16.3922 30.0875 16.835 31.3026 17.7208 32.2565C18.6293 33.1877 19.7876 33.6533 21.1957 33.6533Z" fill="white"/>
<path d="M35.1752 37.2986C34.3803 37.2986 33.7217 37.0487 33.1993 36.5491C32.6996 36.0494 32.4498 35.4475 32.4498 34.7435C32.4498 34.0167 32.6996 33.4035 33.1993 32.9038C33.7217 32.4042 34.3803 32.1543 35.1752 32.1543C35.9702 32.1543 36.6174 32.4042 37.1171 32.9038C37.6395 33.4035 37.9007 34.0167 37.9007 34.7435C37.9007 35.4475 37.6395 36.0494 37.1171 36.5491C36.6174 37.0487 35.9702 37.2986 35.1752 37.2986Z" fill="white"/>
</svg>
