<svg width="50" height="50" fill="none" xmlns="http://www.w3.org/2000/svg"><rect width="50" height="50" rx="10" fill="#5BB5A2"/><path d="M22.116 37.469c-1.272 0-2.385-.239-3.34-.715a6.019 6.019 0 0 1-2.316-2.01l-.477 2.316H12.1V12.531h4.36v10.05c.545-.75 1.26-1.408 2.147-1.976.908-.567 2.078-.851 3.509-.851 1.59 0 3.009.386 4.258 1.158 1.25.772 2.237 1.828 2.964 3.168.727 1.34 1.09 2.862 1.09 4.565 0 1.704-.363 3.225-1.09 4.565a8.366 8.366 0 0 1-2.964 3.135c-1.25.75-2.669 1.124-4.258 1.124Zm-.92-3.816c1.385 0 2.532-.465 3.44-1.396.909-.932 1.363-2.135 1.363-3.612 0-1.476-.454-2.691-1.362-3.645-.909-.954-2.056-1.43-3.441-1.43-1.408 0-2.567.476-3.475 1.43-.886.931-1.329 2.135-1.329 3.611 0 1.476.443 2.692 1.329 3.646.908.93 2.067 1.396 3.475 1.396Zm13.979 3.646c-.795 0-1.453-.25-1.976-.75-.5-.5-.75-1.102-.75-1.806 0-.726.25-1.34.75-1.84.523-.499 1.181-.749 1.976-.749.795 0 1.442.25 1.942.75.523.5.784 1.113.784 1.84 0 .703-.262 1.305-.784 1.805-.5.5-1.147.75-1.942.75Z" fill="#fff"/></svg>