<svg width="149" height="50" fill="none" xmlns="http://www.w3.org/2000/svg"><g clip-path="url(#a)"><path d="M137.135 0H11.872c-.457 0-.908 0-1.363.003-.381.002-.76.01-1.144.015-.836.01-1.67.084-2.495.22a8.3 8.3 0 0 0-2.367.781A8.016 8.016 0 0 0 1.02 4.505a8.22 8.22 0 0 0-.778 2.37 16.178 16.178 0 0 0-.223 2.493c-.012.382-.013.765-.019 1.147v28.78c.006.387.007.762.019 1.148.01.836.084 1.67.223 2.493.137.825.4 1.625.778 2.371a7.73 7.73 0 0 0 1.467 2.01 7.812 7.812 0 0 0 2.016 1.468 8.345 8.345 0 0 0 2.367.785c.825.136 1.659.21 2.495.22.385.009.763.014 1.144.014.455.002.907.002 1.363.002h125.263c.447 0 .902 0 1.349-.002.38 0 .769-.005 1.148-.014.835-.01 1.667-.084 2.491-.22a8.484 8.484 0 0 0 2.376-.785 7.814 7.814 0 0 0 2.013-1.468 7.935 7.935 0 0 0 1.471-2.01 8.224 8.224 0 0 0 .771-2.371c.139-.824.216-1.657.231-2.493.005-.386.005-.761.005-1.148.01-.452.01-.902.01-1.361v-26.06c0-.456 0-.908-.01-1.36 0-.381 0-.764-.005-1.146a16.8 16.8 0 0 0-.231-2.493 8.22 8.22 0 0 0-.771-2.37 8.049 8.049 0 0 0-3.484-3.486 8.434 8.434 0 0 0-2.376-.78 16.254 16.254 0 0 0-2.491-.22c-.379-.007-.768-.014-1.148-.017C138.037 0 137.582 0 137.135 0Z" fill="#000"/><path d="M10.515 48.716c-.38 0-.75-.004-1.126-.013-.78-.01-1.558-.078-2.327-.203a7.325 7.325 0 0 1-2.063-.682 6.729 6.729 0 0 1-1.74-1.266 6.624 6.624 0 0 1-1.27-1.739 7.124 7.124 0 0 1-.677-2.063 15.46 15.46 0 0 1-.207-2.335 113.63 113.63 0 0 1-.018-1.137V10.514s.01-.86.018-1.114c.01-.78.079-1.56.206-2.33.12-.72.347-1.419.677-2.07a6.69 6.69 0 0 1 1.264-1.74 6.93 6.93 0 0 1 1.746-1.274 7.25 7.25 0 0 1 2.059-.677 15.67 15.67 0 0 1 2.335-.204l1.124-.016h127.962l1.137.016c.775.01 1.549.077 2.314.203a7.394 7.394 0 0 1 2.081.682 6.97 6.97 0 0 1 3.007 3.013c.324.647.549 1.339.666 2.053.129.777.202 1.562.216 2.35.004.353.004.731.004 1.108.01.467.01.912.01 1.36v26.06c0 .452 0 .893-.01 1.338 0 .405 0 .776-.005 1.158a15.665 15.665 0 0 1-.213 2.307 7.153 7.153 0 0 1-.672 2.08 6.813 6.813 0 0 1-1.265 1.725 6.733 6.733 0 0 1-1.742 1.273 7.297 7.297 0 0 1-2.077.685c-.77.126-1.548.194-2.327.203a48.62 48.62 0 0 1-1.118.013l-1.35.003-126.619-.003Z" fill="#000"/><path d="M30.84 25.277a6.163 6.163 0 0 1 2.935-5.17 6.308 6.308 0 0 0-4.97-2.686c-2.09-.22-4.117 1.25-5.183 1.25-1.086 0-2.726-1.228-4.493-1.192a6.62 6.62 0 0 0-5.57 3.396c-2.408 4.17-.611 10.297 1.696 13.667 1.154 1.65 2.502 3.494 4.267 3.429 1.728-.072 2.373-1.102 4.457-1.102 2.066 0 2.67 1.102 4.472 1.06 1.853-.03 3.02-1.657 4.134-3.323a13.648 13.648 0 0 0 1.89-3.851 5.955 5.955 0 0 1-3.634-5.478Zm-3.4-10.072a6.067 6.067 0 0 0 1.387-4.347 6.17 6.17 0 0 0-3.994 2.067 5.77 5.77 0 0 0-1.424 4.185 5.103 5.103 0 0 0 4.03-1.905Zm25.233 18.588h-5.894l-1.415 4.18h-2.497L48.45 22.51h2.593l5.583 15.463h-2.54l-1.413-4.18Zm-5.284-1.928h4.672l-2.303-6.783h-.064l-2.305 6.783Zm21.293.471c0 3.504-1.875 5.754-4.705 5.754a3.822 3.822 0 0 1-3.547-1.972h-.053v5.584h-2.315V26.699h2.24v1.875h.043a4 4 0 0 1 3.59-1.993c2.86 0 4.747 2.262 4.747 5.755Zm-2.379 0c0-2.282-1.18-3.782-2.979-3.782-1.768 0-2.957 1.532-2.957 3.782 0 2.272 1.189 3.793 2.957 3.793 1.8 0 2.98-1.49 2.98-3.793Zm14.787 0c0 3.504-1.876 5.754-4.705 5.754a3.822 3.822 0 0 1-3.547-1.972h-.054v5.584H70.47V26.699h2.24v1.875h.043a4 4 0 0 1 3.59-1.993c2.86 0 4.746 2.262 4.746 5.755Zm-2.38 0c0-2.282-1.179-3.782-2.978-3.782-1.768 0-2.957 1.532-2.957 3.782 0 2.272 1.189 3.793 2.957 3.793 1.8 0 2.979-1.49 2.979-3.793Zm10.58 1.328c.172 1.534 1.661 2.54 3.697 2.54 1.95 0 3.353-1.006 3.353-2.389 0-1.2-.846-1.919-2.85-2.411l-2.004-.483c-2.84-.686-4.157-2.014-4.157-4.168 0-2.668 2.325-4.5 5.626-4.5 3.267 0 5.507 1.832 5.583 4.5h-2.336c-.14-1.543-1.416-2.475-3.28-2.475-1.864 0-3.14.943-3.14 2.314 0 1.093.815 1.737 2.808 2.23l1.704.417c3.172.75 4.49 2.025 4.49 4.287 0 2.892-2.304 4.704-5.969 4.704-3.429 0-5.744-1.769-5.894-4.566h2.37Zm14.489-9.633V26.7h2.144v1.833h-2.144v6.214c0 .966.429 1.416 1.372 1.416a7.27 7.27 0 0 0 .761-.054v1.822a6.35 6.35 0 0 1-1.285.107c-2.283 0-3.173-.858-3.173-3.044v-6.461h-1.64V26.7h1.64v-2.668h2.325Zm3.385 8.305c0-3.547 2.089-5.775 5.347-5.775 3.268 0 5.348 2.228 5.348 5.775 0 3.557-2.069 5.776-5.348 5.776s-5.347-2.219-5.347-5.776Zm8.337 0c0-2.433-1.115-3.869-2.99-3.869-1.875 0-2.989 1.447-2.989 3.87 0 2.442 1.114 3.867 2.989 3.867 1.875 0 2.99-1.425 2.99-3.868Zm4.266-5.637h2.207v1.919h.053a2.69 2.69 0 0 1 2.712-2.037c.266 0 .532.028.793.086v2.165a3.239 3.239 0 0 0-1.04-.14 2.338 2.338 0 0 0-1.802.742 2.333 2.333 0 0 0-.609 1.852v6.686h-2.314V26.7Zm16.433 7.962c-.311 2.047-2.304 3.451-4.854 3.451-3.279 0-5.315-2.197-5.315-5.722 0-3.536 2.047-5.83 5.218-5.83 3.119 0 5.08 2.143 5.08 5.561v.793h-7.962v.14a2.93 2.93 0 0 0 3.033 3.193 2.548 2.548 0 0 0 2.603-1.586h2.197Zm-7.822-3.364h5.636a2.713 2.713 0 0 0-2.765-2.861 2.853 2.853 0 0 0-2.871 2.86ZM47.1 10.872a3.287 3.287 0 0 1 3.496 3.691c0 2.374-1.283 3.738-3.496 3.738h-2.684v-7.43H47.1Zm-1.53 6.379h1.4a2.335 2.335 0 0 0 2.45-2.673 2.341 2.341 0 0 0-2.45-2.656h-1.4v5.329Zm6.33-1.756a2.656 2.656 0 1 1 5.288 0 2.658 2.658 0 1 1-5.288 0Zm4.15 0c0-1.215-.546-1.926-1.504-1.926-.962 0-1.503.71-1.503 1.926 0 1.225.54 1.93 1.503 1.93.958 0 1.504-.71 1.504-1.93Zm8.167 2.806h-1.148l-1.159-4.13h-.087l-1.154 4.13h-1.137l-1.546-5.607h1.123l1.004 4.279h.083l1.153-4.279h1.061l1.153 4.279h.087l1-4.279h1.106l-1.54 5.607Zm2.839-5.607h1.065v.891h.083a1.678 1.678 0 0 1 1.673-.999 1.824 1.824 0 0 1 1.94 2.085v3.63h-1.106V14.95c0-.9-.392-1.349-1.21-1.349a1.287 1.287 0 0 0-1.339 1.421v3.28h-1.106v-5.607Zm6.524-2.189h1.107v7.796h-1.106v-7.796Zm2.646 4.99a2.656 2.656 0 1 1 5.29 0 2.656 2.656 0 1 1-5.29 0Zm4.15 0c0-1.215-.546-1.926-1.504-1.926-.962 0-1.503.71-1.503 1.926 0 1.225.541 1.93 1.503 1.93.959 0 1.504-.71 1.504-1.93Zm2.304 1.22c0-1.009.75-1.59 2.085-1.673l1.518-.088v-.484c0-.592-.391-.927-1.148-.927-.617 0-1.045.227-1.168.624h-1.071c.113-.963 1.019-1.581 2.29-1.581 1.406 0 2.199.7 2.199 1.884v3.831H86.32v-.788h-.088a1.887 1.887 0 0 1-1.684.88 1.695 1.695 0 0 1-1.869-1.678Zm3.603-.479v-.469l-1.369.088c-.772.052-1.122.314-1.122.809 0 .504.438.798 1.04.798a1.323 1.323 0 0 0 1.451-1.226Zm2.557-.741c0-1.771.91-2.894 2.327-2.894a1.848 1.848 0 0 1 1.72.984h.082v-3.08h1.106v7.796h-1.06v-.886h-.088a1.947 1.947 0 0 1-1.76.978c-1.427 0-2.328-1.122-2.328-2.898Zm1.142 0c0 1.19.561 1.905 1.499 1.905.932 0 1.509-.726 1.509-1.9 0-1.169-.583-1.905-1.51-1.905-.931 0-1.498.72-1.498 1.9Zm8.672 0a2.656 2.656 0 1 1 5.288 0 2.664 2.664 0 0 1-.677 2.043 2.662 2.662 0 0 1-1.967.871 2.656 2.656 0 0 1-2.644-2.914Zm4.15 0c0-1.215-.546-1.926-1.504-1.926-.962 0-1.503.71-1.503 1.926 0 1.225.541 1.93 1.503 1.93.958 0 1.504-.71 1.504-1.93Zm2.623-2.801h1.065v.891h.083a1.674 1.674 0 0 1 1.673-.999 1.82 1.82 0 0 1 1.878 1.277c.081.262.103.538.062.809v3.63h-1.106v-3.353c0-.9-.392-1.349-1.21-1.349a1.288 1.288 0 0 0-1.339 1.421v3.28h-1.106v-5.607Zm11.014-1.396v1.422h1.214v.932h-1.214v2.883c0 .587.242.844.793.844.141 0 .281-.009.421-.025v.922c-.198.035-.4.054-.601.056-1.231 0-1.721-.433-1.721-1.514v-3.166h-.89v-.932h.89v-1.422h1.108Zm2.726-.793h1.097v3.09h.088a1.725 1.725 0 0 1 1.709-1.004 1.847 1.847 0 0 1 1.931 2.09v3.62h-1.107v-3.347c0-.896-.417-1.35-1.199-1.35a1.312 1.312 0 0 0-1.412 1.422v3.275h-1.106l-.001-7.796Zm11.277 6.282a2.28 2.28 0 0 1-2.43 1.622 2.545 2.545 0 0 1-2.59-2.894 2.584 2.584 0 0 1 2.585-2.929c1.561 0 2.502 1.066 2.502 2.826v.387h-3.96v.062a1.486 1.486 0 0 0 1.494 1.606 1.343 1.343 0 0 0 1.334-.68h1.065Zm-3.893-1.807h2.832a1.343 1.343 0 0 0-.368-1.032 1.353 1.353 0 0 0-1.012-.42 1.43 1.43 0 0 0-1.346.894 1.445 1.445 0 0 0-.106.558Z" fill="#fff"/></g><defs><clipPath id="a"><path fill="#fff" d="M0 0h149v49.806H0z"/></clipPath></defs></svg>