<svg width="40" height="40" fill="none" xmlns="http://www.w3.org/2000/svg"><rect width="40" height="40" rx="20" fill="#E8F2EE"/><path d="M21.833 22.064v1.916a5.5 5.5 0 0 0-7.333 5.186h-1.834a7.333 7.333 0 0 1 9.167-7.103v.001ZM20 20.916a5.498 5.498 0 0 1-5.5-5.5c0-3.038 2.461-5.5 5.5-5.5s5.5 2.462 5.5 5.5c0 3.04-2.461 5.5-5.5 5.5Zm0-1.833a3.666 3.666 0 0 0 3.666-3.666A3.666 3.666 0 0 0 20 11.75a3.666 3.666 0 0 0-3.667 3.666A3.666 3.666 0 0 0 20 19.084Zm5.5 5.5v-3.208l4.583 4.125-4.583 4.125v-3.209h-2.75v-1.833h2.75Z" fill="#5BB5A2"/></svg>