<svg width="169" height="50" fill="none" xmlns="http://www.w3.org/2000/svg"><g clip-path="url(#a)"><path fill-rule="evenodd" clip-rule="evenodd" d="M162.498 50H6.252C2.806 50 0 47.182 0 43.75V6.25A6.26 6.26 0 0 1 6.252 0h156.246c3.443 0 6.252 2.805 6.252 6.25v37.5c0 3.432-2.809 6.25-6.252 6.25Z" fill="#000"/><path fill-rule="evenodd" clip-rule="evenodd" d="M162.498 1c2.89 0 5.255 2.36 5.255 5.25v37.5c0 2.89-2.35 5.25-5.255 5.25H6.252c-2.89 0-5.255-2.36-5.255-5.25V6.25C.997 3.36 3.347 1 6.252 1h156.246Zm0-1H6.252C2.806 0 0 2.818 0 6.25v37.5C0 47.194 2.806 50 6.252 50h156.246c3.443 0 6.252-2.806 6.252-6.25V6.25c0-3.432-2.809-6.25-6.252-6.25Z" fill="#000"/><path d="M88.898 16.54c-1.127 0-2.077-.396-2.828-1.175a4.011 4.011 0 0 1-1.143-2.868c0-1.138.385-2.101 1.143-2.865.748-.78 1.698-1.175 2.825-1.175 1.114 0 2.064.396 2.828 1.175.757.789 1.142 1.752 1.142 2.865-.012 1.14-.397 2.104-1.142 2.865-.748.785-1.698 1.178-2.825 1.178Zm-33.53 0a3.92 3.92 0 0 1-2.841-1.16c-.776-.767-1.17-1.736-1.17-2.88s.394-2.113 1.17-2.88c.767-.77 1.723-1.16 2.84-1.16.547 0 1.078.11 1.587.33.5.216.906.509 1.207.867l.075.09-.841.83-.087-.103c-.475-.567-1.112-.845-1.953-.845-.751 0-1.406.268-1.947.798-.543.533-.82 1.231-.82 2.076s.277 1.543.82 2.076c.54.53 1.196.798 1.947.798.8 0 1.475-.268 2-.798.31-.312.502-.748.57-1.3h-2.697v-1.165h3.855l.016.105c.028.197.056.4.056.587 0 1.075-.323 1.945-.963 2.587-.726.76-1.676 1.147-2.825 1.147Zm44.582-.165h-1.19l-3.64-5.851.03 1.053v4.795h-1.189V8.625h1.357l.037.06 3.424 5.51-.03-1.05v-4.52h1.2v7.75Zm-19.987 0H78.76V9.79h-2.09V8.625h5.38v1.166h-2.09v6.584h.004Zm-4.274 0h-1.202v-7.75h1.202v7.75Zm-6.752 0h-1.202V9.79h-2.089V8.625h5.38v1.166h-2.09v6.584Zm-4.052-.013h-4.607V8.625h4.607v1.166h-3.402v2.126h3.07v1.153h-3.07v2.126h3.402v1.166Zm22.066-1.798c.538.539 1.19.81 1.947.81.78 0 1.416-.265 1.946-.81.528-.53.795-1.225.795-2.064 0-.838-.267-1.537-.791-2.063a2.658 2.658 0 0 0-1.947-.811c-.78 0-1.415.265-1.943.81-.528.53-.795 1.226-.795 2.064 0 .839.264 1.537.788 2.064Z" fill="#fff"/><path fill-rule="evenodd" clip-rule="evenodd" d="M84.816 27.195c-2.934 0-5.312 2.235-5.312 5.318 0 3.054 2.394 5.317 5.312 5.317 2.934 0 5.312-2.25 5.312-5.317 0-3.083-2.378-5.318-5.312-5.318Zm0 8.528c-1.605 0-2.986-1.334-2.986-3.223 0-1.917 1.384-3.223 2.986-3.223 1.605 0 2.986 1.306 2.986 3.223.004 1.901-1.381 3.223-2.986 3.223Zm-11.589-8.528c-2.934 0-5.312 2.235-5.312 5.318 0 3.054 2.394 5.317 5.312 5.317 2.934 0 5.312-2.25 5.312-5.317 0-3.083-2.381-5.318-5.312-5.318Zm0 8.528c-1.605 0-2.986-1.334-2.986-3.223 0-1.917 1.384-3.223 2.986-3.223 1.605 0 2.987 1.306 2.987 3.223 0 1.901-1.382 3.223-2.987 3.223Zm-13.79-6.904v2.25h5.38c-.164 1.263-.58 2.195-1.217 2.834-.788.791-2.005 1.652-4.15 1.652-3.306 0-5.892-2.68-5.892-6s2.586-6.001 5.892-6.001c1.785 0 3.086.707 4.051 1.611l1.59-1.596c-1.342-1.29-3.127-2.278-5.629-2.278-4.535 0-8.341 3.709-8.341 8.25 0 4.555 3.802 8.252 8.341 8.252 2.45 0 4.287-.804 5.74-2.32 1.481-1.486 1.95-3.584 1.95-5.277 0-.526-.04-1-.124-1.402h-7.594c.003-.003.003.025.003.025Zm56.405 1.752c-.444-1.194-1.785-3.389-4.536-3.389-2.726 0-4.992 2.154-4.992 5.318 0 2.986 2.242 5.318 5.256 5.318 2.421 0 3.831-1.487 4.411-2.36l-1.797-1.21c-.596.89-1.425 1.472-2.602 1.472-1.189 0-2.021-.542-2.573-1.611l7.081-2.946c0 .003-.248-.593-.248-.593Zm-7.221 1.776c-.056-2.054 1.589-3.098 2.766-3.098.928 0 1.701.458 1.965 1.125l-4.731 1.973Zm-5.753 5.153h2.325V21.877h-2.325V37.5Zm-3.818-9.124h-.084c-.525-.627-1.521-1.194-2.794-1.194-2.642 0-5.076 2.335-5.076 5.334 0 2.986 2.422 5.293 5.076 5.293 1.257 0 2.27-.57 2.794-1.21h.084v.764c0 2.03-1.08 3.123-2.822 3.123-1.425 0-2.31-1.028-2.67-1.889l-2.02.848c.58 1.403 2.129 3.14 4.687 3.14 2.726 0 5.035-1.612 5.035-5.543V27.5h-2.198v.876h-.012Zm-2.67 7.347c-1.605 0-2.946-1.346-2.946-3.207 0-1.877 1.341-3.236 2.946-3.236 1.59 0 2.822 1.375 2.822 3.236.015 1.86-1.23 3.207-2.822 3.207Zm30.349-13.846h-5.56V37.5h2.325v-5.916h3.238c2.574 0 5.104-1.874 5.104-4.848 0-2.974-2.521-4.86-5.107-4.86Zm.068 7.524h-3.306V24.04h3.306c1.742 0 2.726 1.443 2.726 2.68 0 1.226-.997 2.681-2.726 2.681Zm14.358-2.235c-1.689 0-3.43.752-4.151 2.388l2.062.86c.444-.86 1.257-1.153 2.117-1.153 1.205 0 2.421.723 2.449 2.014v.165c-.416-.237-1.328-.598-2.421-.598-2.226 0-4.483 1.222-4.483 3.513 0 2.098 1.826 3.444 3.859 3.444 1.562 0 2.421-.707 2.958-1.527h.084v1.21h2.242v-5.986c0-2.787-2.062-4.33-4.716-4.33Zm-.292 8.557c-.76 0-1.825-.374-1.825-1.334 0-1.21 1.329-1.668 2.462-1.668 1.024 0 1.508.222 2.117.527a2.803 2.803 0 0 1-2.754 2.475Zm13.185-8.223-2.67 6.777h-.084l-2.766-6.777h-2.502l4.151 9.473-2.366 5.265h2.421l6.386-14.738h-2.57Zm-20.93 10h2.325V21.877h-2.325V37.5Z" fill="#fff"/><path fill-rule="evenodd" clip-rule="evenodd" d="M12.989 9.417c-.36.39-.568.985-.568 1.764v27.64c0 .78.208 1.375.58 1.75l.097.083L28.52 25.168v-.346L13.085 9.332l-.096.085Z" fill="url(#b)"/><path fill-rule="evenodd" clip-rule="evenodd" d="m33.651 30.346-5.144-5.165v-.361l5.144-5.166.112.069 6.085 3.472c1.741.985 1.741 2.613 0 3.61l-6.085 3.473-.112.068Z" fill="url(#c)"/><path fill-rule="evenodd" clip-rule="evenodd" d="M33.764 30.277 28.508 25 12.99 40.583c.568.61 1.521.68 2.586.084l18.189-10.39Z" fill="url(#d)"/><path fill-rule="evenodd" clip-rule="evenodd" d="M33.764 19.723 15.575 9.348c-1.065-.61-2.02-.526-2.586.085L28.51 25l5.255-5.277Z" fill="url(#e)"/><path opacity=".2" fill-rule="evenodd" clip-rule="evenodd" d="M33.652 30.165 15.587 40.471c-1.008.582-1.909.542-2.49.012l-.095.097.096.084c.58.527 1.48.57 2.49-.013l18.188-10.374-.124-.112Z" fill="#000"/><path opacity=".12" fill-rule="evenodd" clip-rule="evenodd" d="m39.848 26.624-6.212 3.541.112.112 6.085-3.472c.872-.499 1.3-1.154 1.3-1.805-.052.599-.496 1.166-1.285 1.624Z" fill="#000"/><path opacity=".25" fill-rule="evenodd" clip-rule="evenodd" d="m15.575 9.53 24.273 13.846c.789.446 1.233 1.029 1.301 1.624 0-.651-.428-1.306-1.3-1.805L15.574 9.35c-1.742-1.001-3.154-.166-3.154 1.832v.181c0-2.001 1.412-2.82 3.154-1.833Z" fill="#fff"/></g><defs><linearGradient id="b" x1="27.137" y1="10.883" x2="2.419" y2="17.442" gradientUnits="userSpaceOnUse"><stop stop-color="#00A0FF"/><stop offset=".007" stop-color="#00A1FF"/><stop offset=".26" stop-color="#00BEFF"/><stop offset=".512" stop-color="#00D2FF"/><stop offset=".76" stop-color="#00DFFF"/><stop offset="1" stop-color="#00E3FF"/></linearGradient><linearGradient id="c" x1="42.119" y1="25" x2="11.997" y2="25" gradientUnits="userSpaceOnUse"><stop stop-color="#FFE000"/><stop offset=".409" stop-color="#FFBD00"/><stop offset=".775" stop-color="orange"/><stop offset="1" stop-color="#FF9C00"/></linearGradient><linearGradient id="d" x1="30.906" y1="27.872" x2="10.953" y2="61.317" gradientUnits="userSpaceOnUse"><stop stop-color="#FF3A44"/><stop offset="1" stop-color="#C31162"/></linearGradient><linearGradient id="e" x1="9.081" y1=".223" x2="17.983" y2="15.161" gradientUnits="userSpaceOnUse"><stop stop-color="#32A071"/><stop offset=".069" stop-color="#2DA771"/><stop offset=".476" stop-color="#15CF74"/><stop offset=".801" stop-color="#06E775"/><stop offset="1" stop-color="#00F076"/></linearGradient><clipPath id="a"><path fill="#fff" d="M0 0h168.75v50H0z"/></clipPath></defs></svg>