<svg width="40" height="40" viewBox="0 0 40 40" fill="none" xmlns="http://www.w3.org/2000/svg">
<rect width="40" height="40" rx="6" fill="#5BB5A2"/>
<path d="M29.1628 25.7108C29.1628 26.3772 28.7915 27.6606 27.9583 28.3655C27.7915 28.4938 27.6237 28.4214 27.697 28.2344C27.94 27.6404 28.4964 26.2663 28.2351 25.9501C28.0518 25.7099 27.291 25.7273 26.642 25.7832C26.345 25.8208 26.0855 25.8383 25.883 25.8795C25.6969 25.8951 25.6584 25.7301 25.8454 25.6018C26.0855 25.4322 26.345 25.3038 26.6429 25.2094C27.697 24.8941 28.9162 25.0838 29.0904 25.2855C29.1234 25.324 29.1637 25.4322 29.1637 25.7099L29.1628 25.7108ZM27.4019 26.897C27.1598 27.0819 26.9057 27.2503 26.641 27.4012C24.6959 28.5699 22.1769 29.1823 19.9879 29.1823C16.4651 29.1823 13.3145 27.8833 10.9239 25.7099C10.7195 25.5431 10.889 25.3011 11.1283 25.4322C13.7041 26.9355 16.8923 27.8448 20.1932 27.8448C22.4 27.8386 24.5865 27.4234 26.642 26.6202C26.7905 26.5642 26.9573 26.4882 27.103 26.435C27.4395 26.2838 27.7355 26.6578 27.4019 26.897ZM21.746 16.7862C21.746 15.8319 21.7836 15.27 21.4674 14.7878C21.1869 14.3909 20.7038 14.1526 20.03 14.1902C19.2985 14.2305 18.513 14.7099 18.3122 15.589C18.2737 15.7907 18.1555 15.9887 17.9125 16.0318L15.6795 15.7476C15.52 15.7109 15.278 15.589 15.3569 15.27C15.8363 12.7473 17.9923 11.8682 20.03 11.75H20.5095C21.6278 11.75 23.0642 12.0699 23.9836 12.9087C25.0992 13.95 24.981 15.3488 24.981 16.8687V20.4684C24.981 21.5483 25.4182 22.0267 25.8591 22.5896C25.9783 22.7903 26.0186 23.0268 25.8179 23.19C25.2406 23.7051 24.6547 24.2106 24.0606 24.7062C23.9011 24.8281 23.6133 24.8409 23.5015 24.7474C22.7956 24.1562 22.6233 23.828 22.186 23.2276C21.4252 24.026 20.7872 24.4669 20.0273 24.7062C19.4929 24.8418 18.9433 24.9083 18.392 24.9042C16.4761 24.9042 14.9581 23.7098 14.9581 21.3475C14.9581 19.4693 15.9573 18.1923 17.4331 17.5883C18.909 16.9833 21.054 16.7908 21.7451 16.7871L21.746 16.7862ZM21.3079 21.5455C21.7845 20.7462 21.7451 20.0917 21.7451 18.6259C21.1484 18.6259 20.548 18.6672 20.03 18.7891C19.0721 19.0668 18.3122 19.67 18.3122 20.9478C18.3122 21.947 18.832 22.6272 19.7101 22.6272C19.8311 22.6272 19.9375 22.6125 20.03 22.5859C20.6442 22.4154 21.0274 22.1074 21.3079 21.5455Z" fill="white"/>
</svg>
