<svg width="40" height="40" viewBox="0 0 40 40" fill="none" xmlns="http://www.w3.org/2000/svg">
<rect width="40" height="40" rx="6" fill="#5BB5A2"/>
<path d="M19.6555 15.6202C18.8525 15.6202 17.6095 14.7072 16.3005 14.7402C14.5735 14.7622 12.9895 15.7412 12.0985 17.2922C10.3055 20.4052 11.6365 25.0032 13.3855 27.5332C14.2435 28.7652 15.2555 30.1512 16.5975 30.1072C17.8845 30.0522 18.3685 29.2712 19.9305 29.2712C21.4815 29.2712 21.9215 30.1072 23.2855 30.0742C24.6715 30.0522 25.5515 28.8202 26.3985 27.5772C27.3775 26.1472 27.7845 24.7612 27.8065 24.6842C27.7735 24.6732 25.1115 23.6502 25.0785 20.5702C25.0565 17.9962 27.1795 16.7642 27.2785 16.7092C26.0685 14.9382 24.2095 14.7402 23.5605 14.6962C21.8665 14.5642 20.4475 15.6202 19.6555 15.6202ZM22.5155 13.0242C23.2305 12.1662 23.7035 10.9672 23.5715 9.77917C22.5485 9.82317 21.3165 10.4612 20.5795 11.3192C19.9195 12.0782 19.3475 13.2992 19.5015 14.4652C20.6345 14.5532 21.8005 13.8822 22.5155 13.0242Z" fill="white"/>
</svg>
