<svg width="40" height="40" viewBox="0 0 40 40" fill="none" xmlns="http://www.w3.org/2000/svg">
<rect width="40" height="40" rx="6" fill="#5BB5A2"/>
<path d="M11.8088 15.8842C12.5715 14.3655 13.7415 13.0888 15.1881 12.1969C16.6346 11.3049 18.3007 10.8328 20.0002 10.8334C22.4706 10.8334 24.5459 11.7409 26.1327 13.2213L23.5046 15.8503C22.554 14.9419 21.3458 14.479 20.0002 14.479C17.6122 14.479 15.591 16.0923 14.8714 18.2584C14.6881 18.8084 14.5836 19.395 14.5836 20C14.5836 20.605 14.6881 21.1917 14.8714 21.7417C15.5919 23.9087 17.6122 25.5211 20.0002 25.5211C21.2331 25.5211 22.2827 25.1957 23.104 24.6457C23.5801 24.3322 23.9878 23.9254 24.3023 23.4499C24.6167 22.9744 24.8315 22.4401 24.9337 21.8792H20.0002V18.3335H28.6333C28.7415 18.933 28.8002 19.5582 28.8002 20.2081C28.8002 23.0003 27.801 25.3506 26.0667 26.9456C24.5505 28.3463 22.4752 29.1667 20.0002 29.1667C18.7962 29.1672 17.604 28.9304 16.4917 28.4699C15.3793 28.0094 14.3686 27.3342 13.5173 26.4829C12.666 25.6316 11.9908 24.6209 11.5303 23.5085C11.0698 22.3962 10.833 21.204 10.8335 20C10.8335 18.5205 11.1873 17.1217 11.8088 15.8842Z" fill="white"/>
</svg>
