<svg width="40" height="40" viewBox="0 0 40 40" fill="none" xmlns="http://www.w3.org/2000/svg">
<rect width="40" height="40" rx="20" fill="#E8F2EE"/>
<path d="M21.8332 22.0643V23.9801C21.0035 23.6868 20.1156 23.5968 19.244 23.7178C18.3723 23.8387 17.5424 24.167 16.824 24.6751C16.1055 25.1833 15.5195 25.8564 15.1151 26.6379C14.7107 27.4195 14.4997 28.2866 14.4998 29.1666L12.6665 29.1657C12.6662 28.0464 12.9222 26.9418 13.4148 25.9367C13.9074 24.9315 14.6235 24.0525 15.5084 23.3669C16.3932 22.6813 17.4232 22.2074 18.5196 21.9815C19.6159 21.7555 20.7494 21.7835 21.8332 22.0634V22.0643ZM19.9998 20.9166C16.9611 20.9166 14.4998 18.4554 14.4998 15.4166C14.4998 12.3779 16.9611 9.91663 19.9998 9.91663C23.0386 9.91663 25.4998 12.3779 25.4998 15.4166C25.4998 18.4554 23.0386 20.9166 19.9998 20.9166ZM19.9998 19.0833C22.0257 19.0833 23.6665 17.4425 23.6665 15.4166C23.6665 13.3908 22.0257 11.75 19.9998 11.75C17.974 11.75 16.3332 13.3908 16.3332 15.4166C16.3332 17.4425 17.974 19.0833 19.9998 19.0833ZM27.3332 24.5833H30.0832V26.4166H27.3332V29.625L22.7498 25.5L27.3332 21.375V24.5833Z" fill="#5BB5A2"/>
</svg>
