<svg width="40" height="40" viewBox="0 0 40 40" fill="none" xmlns="http://www.w3.org/2000/svg">
<rect width="40" height="40" rx="6" fill="#5BB5A2"/>
<path d="M29.3153 14.1847C28.6155 14.4943 27.8733 14.6976 27.1134 14.7879C27.9144 14.3089 28.5138 13.555 28.8001 12.6667C28.0484 13.1141 27.2244 13.4276 26.3654 13.5971C25.7885 12.9798 25.0238 12.5704 24.1902 12.4326C23.3565 12.2947 22.5007 12.4362 21.7558 12.8349C21.0108 13.2336 20.4185 13.8673 20.0708 14.6374C19.7231 15.4075 19.6396 16.2709 19.8333 17.0933C18.309 17.0169 16.8177 16.6208 15.4565 15.9307C14.0952 15.2405 12.8942 14.2718 11.9316 13.0875C11.5909 13.6727 11.4118 14.338 11.4128 15.0152C11.4128 16.3444 12.0893 17.5186 13.1178 18.2061C12.5091 18.187 11.9139 18.0226 11.3816 17.7267V17.7744C11.3818 18.6596 11.6881 19.5175 12.2486 20.2027C12.8092 20.8878 13.5894 21.3581 14.457 21.5336C13.892 21.6868 13.2996 21.7093 12.7245 21.5996C12.9692 22.3616 13.4459 23.028 14.0882 23.5055C14.7304 23.983 15.5058 24.2477 16.3059 24.2626C15.5107 24.8871 14.6002 25.3488 13.6264 25.6212C12.6526 25.8936 11.6347 25.9715 10.6309 25.8502C12.3832 26.9772 14.4232 27.5755 16.5067 27.5736C23.5586 27.5736 27.415 21.7316 27.415 16.6652C27.415 16.5002 27.4104 16.3334 27.4031 16.1702C28.1537 15.6277 28.8016 14.9557 29.3162 14.1856L29.3153 14.1847Z" fill="white"/>
</svg>
