<svg width="132" height="60" fill="none" xmlns="http://www.w3.org/2000/svg"><rect width="131.397" height="60" rx="10" fill="#F8F8F8"/><g clip-path="url(#a)"><path d="M48.095 27.276c0-1.783-1.733-3.677-4.734-3.677-3.37 0-7.07 2.472-7.636 7.403-.578 4.98 2.52 7.194 5.644 7.194 3.123 0 4.759-1.217 6.431-2.84-1.438-1.808-3.295-.972-3.652-.788-.393.197-.898.468-1.93.468-1.206 0-2.435-.541-2.435-2.792 7.722-.762 8.312-3.185 8.312-4.968Zm-3.824.295c-.05.554-.27 1.5-4.181 2.03.824-2.927 2.398-3.149 3.123-3.149.677 0 1.107.53 1.058 1.12Zm-13.084.48-1.796 5.644c-.049-.442-1.266-9.8-1.266-9.8-2.828 0-4.34 2.016-5.14 4.144 0 0-2.017 5.226-2.19 5.669-.011-.406-.307-5.608-.307-5.608-.172-2.607-2.557-4.193-4.488-4.193l2.336 14.178c2.964-.012 4.563-2.016 5.399-4.144 0 0 1.783-4.611 1.857-4.82.012.197 1.279 8.964 1.279 8.964 2.976 0 4.574-1.881 5.435-3.935l4.169-10.243c-2.94 0-4.489 2.004-5.288 4.144Zm27.828-4.476c-1.832 0-3.234.996-4.414 2.46v-.013l1.057-8.522c-2.435 0-4.415 2.115-4.796 5.263l-1.844 15.212c1.402 0 2.89-.406 3.689-1.44.713.923 1.783 1.661 3.37 1.661 4.107 0 6.922-4.771 6.922-9.247-.024-4.083-2.004-5.374-3.984-5.374Zm-.381 7.317c-.43 2.496-1.82 4.193-3.16 4.193-1.353 0-1.931-.603-1.931-.603.258-2.189.418-3.529.91-4.685.492-1.156 1.66-3 2.877-3 1.193 0 1.734 1.586 1.304 4.095Zm14.621-6.985H70.39l.012-.148c.197-1.869.64-2.853 2.103-3.013.996-.098 1.439-.614 1.55-1.18.086-.443.356-1.98.356-1.98-5.755-.037-7.563 2.447-8.03 6.235l-.012.086h-.062c-.934 0-1.967 1.057-2.14 2.398l-.06.492h1.918l-1.611 13.305-.492 2.386c.061 0 .135.012.197.012 2.693-.098 4.414-2.226 4.795-5.312l1.255-10.391h.897c.886 0 1.919-.886 2.103-2.361l.086-.53Zm14.904-.246c-3.308 0-6.431 2.435-7.39 6.26-.96 3.824.492 8.349 5.361 8.349 4.858 0 7.661-4.71 7.661-8.633 0-3.898-2.643-5.976-5.632-5.976Zm1.34 7.108c-.171 1.733-.934 4.365-3.024 4.365-2.103 0-1.808-3.074-1.599-4.538.221-1.561 1.094-3.787 2.976-3.787 1.685 0 1.844 2.004 1.648 3.96Zm20.635-2.718s-1.66 5.214-1.795 5.644c-.049-.442-1.267-9.8-1.267-9.8-2.828 0-4.341 2.016-5.14 4.144l-2.189 5.669c-.012-.406-.307-5.608-.307-5.608-.172-2.607-2.558-4.193-4.489-4.193l2.325 14.178c2.963-.012 4.562-2.016 5.398-4.144 0 0 1.783-4.611 1.845-4.82.024.197 1.278 8.964 1.278 8.964 2.976 0 4.575-1.881 5.436-3.935l4.168-10.243c-2.926 0-4.476 2.004-5.263 4.144ZM75.961 17.586l-2.41 19.442-.493 2.398c.062 0 .136.012.197.012 2.595-.037 4.44-2.312 4.784-5.177l1.39-11.154c.418-3.406-1.612-5.52-3.468-5.52Z" fill="#3A60F8"/></g><defs><clipPath id="a"><path fill="#fff" transform="translate(16 17.5)" d="M0 0h99.397v25H0z"/></clipPath></defs></svg>