<svg width="93" height="60" fill="none" xmlns="http://www.w3.org/2000/svg"><rect width="92.894" height="60" rx="10" fill="#F8F8F8"/><g clip-path="url(#a)"><path d="M27.132 20.723c-.713.845-1.855 1.51-2.997 1.415-.143-1.141.416-2.355 1.07-3.104.714-.868 1.963-1.486 2.974-1.534.119 1.19-.345 2.355-1.047 3.223Zm1.035 1.641c-1.653-.095-3.069.94-3.854.94-.796 0-1.998-.892-3.306-.868-1.7.024-3.283.987-4.15 2.521-1.785 3.069-.465 7.612 1.26 10.11.844 1.236 1.855 2.592 3.187 2.545 1.261-.048 1.76-.82 3.283-.82 1.534 0 1.974.82 3.306.796 1.38-.024 2.248-1.237 3.093-2.474.963-1.403 1.355-2.771 1.38-2.842-.025-.024-2.665-1.035-2.689-4.08-.023-2.545 2.082-3.758 2.177-3.83-1.19-1.76-3.045-1.95-3.687-1.998Zm9.55-3.449v18.542h2.879v-6.339h3.984c3.64 0 6.196-2.498 6.196-6.113 0-3.616-2.51-6.09-6.101-6.09h-6.958Zm2.879 2.427h3.318c2.497 0 3.925 1.332 3.925 3.675s-1.428 3.687-3.937 3.687h-3.306v-7.362ZM56.032 37.6c1.808 0 3.485-.916 4.246-2.367h.06v2.224h2.664v-9.23c0-2.675-2.141-4.4-5.436-4.4-3.056 0-5.316 1.749-5.4 4.151h2.594c.214-1.142 1.272-1.89 2.723-1.89 1.76 0 2.747.82 2.747 2.33v1.023l-3.591.214c-3.342.202-5.15 1.57-5.15 3.949 0 2.402 1.867 3.996 4.543 3.996Zm.773-2.2c-1.534 0-2.51-.738-2.51-1.868 0-1.165.94-1.843 2.736-1.95l3.2-.202v1.046c0 1.737-1.475 2.974-3.426 2.974Zm9.753 7.1c2.807 0 4.127-1.07 5.28-4.317l5.055-14.177H73.97L70.58 34.96h-.06l-3.39-10.954h-3.008l4.876 13.499-.262.82c-.44 1.392-1.153 1.927-2.426 1.927a9.28 9.28 0 0 1-.844-.047v2.224c.166.047.88.071 1.094.071Z" fill="#000"/></g><defs><clipPath id="a"><path fill="#fff" transform="translate(16 17.5)" d="M0 0h60.894v25H0z"/></clipPath></defs></svg>