<svg width="94" height="60" fill="none" xmlns="http://www.w3.org/2000/svg"><rect width="93.598" height="60" rx="10" fill="#F8F8F8"/><g clip-path="url(#a)"><path d="M56.112 20.03c-4.37 0-8.274 2.265-8.274 6.45 0 4.798 6.925 5.13 6.925 7.54 0 1.015-1.163 1.924-3.15 1.924-2.82 0-4.927-1.27-4.927-1.27l-.901 4.223s2.427 1.072 5.65 1.072c4.777 0 8.536-2.376 8.536-6.632 0-5.07-6.954-5.392-6.954-7.63 0-.794.955-1.666 2.936-1.666 2.235 0 4.06.924 4.06.924l.882-4.078s-1.985-.856-4.783-.856Zm-39.975.308-.106.616s1.838.337 3.494 1.008c2.131.77 2.283 1.217 2.642 2.608l3.912 15.082h5.245l8.079-19.314H34.17L28.979 33.47l-2.118-11.13c-.195-1.275-1.179-2.002-2.383-2.002h-8.341Zm25.37 0-4.105 19.314h4.99l4.09-19.314h-4.975Zm27.828 0c-1.204 0-1.841.645-2.309 1.77l-7.31 17.544h5.233l1.012-2.924h6.374l.616 2.924h4.617L73.54 20.338h-4.206Zm.68 5.218 1.55 7.248h-4.154l2.604-7.248Z" fill="#1434CB"/></g><defs><clipPath id="a"><path fill="#fff" transform="translate(16 20)" d="M0 0h61.598v20H0z"/></clipPath></defs></svg>