<svg width="126" height="60" fill="none" xmlns="http://www.w3.org/2000/svg"><rect width="125.939" height="60" rx="10" fill="#F8F8F8"/><g clip-path="url(#a)"><path d="M51.008 22.613h-5.18a.72.72 0 0 0-.712.607l-2.095 13.286a.431.431 0 0 0 .427.498h2.473a.72.72 0 0 0 .712-.608l.565-3.583a.72.72 0 0 1 .71-.608h1.64c3.413 0 5.383-1.652 5.898-4.925.231-1.432.01-2.557-.661-3.345-.736-.865-2.042-1.322-3.776-1.322Zm.598 4.852c-.283 1.86-1.704 1.86-3.077 1.86h-.782l.549-3.473a.432.432 0 0 1 .426-.364h.358c.936 0 1.819 0 2.275.533.272.318.355.791.251 1.444Zm14.89-.06h-2.481a.432.432 0 0 0-.427.365l-.11.694-.173-.252c-.538-.78-1.735-1.04-2.93-1.04-2.742 0-5.084 2.076-5.54 4.99-.237 1.452.1 2.842.924 3.81.756.892 1.838 1.263 3.125 1.263 2.21 0 3.434-1.42 3.434-1.42l-.11.689c-.042.263.161.5.425.5h2.235a.72.72 0 0 0 .712-.609l1.34-8.491a.43.43 0 0 0-.424-.499Zm-3.459 4.829c-.24 1.417-1.364 2.369-2.799 2.369-.72 0-1.296-.231-1.666-.669-.367-.435-.506-1.054-.39-1.743.224-1.406 1.368-2.388 2.781-2.388.704 0 1.277.234 1.654.676.379.446.529 1.069.42 1.755Zm16.672-4.829h-2.493a.722.722 0 0 0-.596.316l-3.44 5.065-1.457-4.867a.722.722 0 0 0-.69-.514h-2.45a.432.432 0 0 0-.41.572l2.746 8.059-2.582 3.644a.432.432 0 0 0 .352.682h2.49a.719.719 0 0 0 .592-.309l8.293-11.97a.432.432 0 0 0-.355-.678Z" fill="#253B80"/><path d="M87.963 22.613h-5.181a.72.72 0 0 0-.71.607l-2.096 13.286a.431.431 0 0 0 .425.498h2.66c.246 0 .458-.18.496-.425l.595-3.766a.719.719 0 0 1 .71-.608h1.64c3.414 0 5.383-1.652 5.898-4.925.232-1.432.009-2.557-.662-3.345-.735-.865-2.04-1.322-3.775-1.322Zm.598 4.852c-.282 1.86-1.703 1.86-3.077 1.86h-.781l.55-3.473a.43.43 0 0 1 .425-.364h.358c.935 0 1.818 0 2.275.533.271.318.354.791.25 1.444Zm14.889-.06h-2.48a.428.428 0 0 0-.425.365l-.11.694-.175-.252c-.537-.78-1.734-1.04-2.93-1.04-2.74 0-5.082 2.076-5.538 4.99-.236 1.452.1 2.842.924 3.81.757.892 1.838 1.263 3.125 1.263 2.209 0 3.434-1.42 3.434-1.42l-.11.689c-.042.263.16.5.426.5h2.235a.72.72 0 0 0 .71-.609l1.342-8.491a.432.432 0 0 0-.428-.499Zm-3.459 4.829c-.237 1.417-1.364 2.369-2.799 2.369-.719 0-1.296-.231-1.666-.669-.366-.435-.504-1.054-.389-1.743.225-1.406 1.367-2.388 2.78-2.388.705 0 1.278.234 1.655.676.38.446.529 1.069.42 1.755Zm6.384-9.257-2.126 13.53a.43.43 0 0 0 .425.498h2.138a.72.72 0 0 0 .712-.609l2.097-13.285a.432.432 0 0 0-.426-.499h-2.394a.434.434 0 0 0-.426.366Z" fill="#179BD7"/><path d="m21.505 39.587.396-2.517-.883-.02h-4.214l2.929-18.571a.245.245 0 0 1 .081-.145.239.239 0 0 1 .156-.058h7.106c2.36 0 3.988.49 4.838 1.46.398.454.652.93.775 1.452.128.549.13 1.204.005 2.003l-.01.058v.513l.4.225c.335.178.601.382.806.615.341.389.561.883.655 1.469.096.602.064 1.319-.094 2.13-.181.933-.475 1.746-.872 2.411a4.958 4.958 0 0 1-1.383 1.515 5.609 5.609 0 0 1-1.862.84c-.686.18-1.469.27-2.327.27h-.553c-.396 0-.78.142-1.081.397-.303.26-.503.617-.564 1.006l-.042.227-.7 4.435-.032.163c-.008.052-.022.077-.043.095a.117.117 0 0 1-.073.026h-3.415Z" fill="#253B80"/><path d="M33.46 23.308c-.02.136-.045.274-.072.417-.937 4.811-4.143 6.473-8.238 6.473h-2.085c-.5 0-.923.364-1 .858l-1.068 6.77-.302 1.919a.533.533 0 0 0 .526.616h3.698a.89.89 0 0 0 .879-.75l.036-.188.696-4.418.045-.242a.89.89 0 0 1 .879-.752h.553c3.582 0 6.387-1.454 7.207-5.664.342-1.758.165-3.226-.741-4.259a3.536 3.536 0 0 0-1.012-.78Z" fill="#179BD7"/><path d="M32.48 22.917a7.44 7.44 0 0 0-.911-.202 11.58 11.58 0 0 0-1.838-.134h-5.57a.884.884 0 0 0-.878.752L22.1 30.837l-.035.22c.078-.495.5-.858 1.001-.858h2.085c4.095 0 7.3-1.663 8.238-6.474a10.6 10.6 0 0 0 .073-.417 5.009 5.009 0 0 0-.98-.39Z" fill="#222D65"/><path d="M23.283 23.333a.885.885 0 0 1 .878-.751h5.57c.66 0 1.276.043 1.838.134a7.379 7.379 0 0 1 1.122.267c.276.092.533.2.77.325.28-1.778-.002-2.988-.963-4.084-1.06-1.207-2.973-1.724-5.42-1.724H19.97c-.5 0-.926.364-1.004.858l-2.96 18.762a.61.61 0 0 0 .603.706h4.387l1.102-6.989 1.184-7.504Z" fill="#253B80"/></g><defs><clipPath id="a"><path fill="#fff" transform="translate(16 17.5)" d="M0 0h93.939v25H0z"/></clipPath></defs></svg>