<svg width="73" height="60" fill="none" xmlns="http://www.w3.org/2000/svg"><rect width="72.625" height="60" rx="10" fill="#F8F8F8"/><g clip-path="url(#a)"><path d="M41.548 20.162h-10.89v19.564h10.89V20.162Z" fill="#FF5A00"/><path d="M31.383 29.944c0-3.975 1.869-7.503 4.736-9.782a12.377 12.377 0 0 0-7.675-2.662C21.565 17.5 16 23.065 16 29.944c0 6.878 5.565 12.443 12.444 12.443a12.37 12.37 0 0 0 7.675-2.662 12.419 12.419 0 0 1-4.736-9.781Z" fill="#EB001B"/><path d="M56.238 29.944c0 6.878-5.565 12.443-12.443 12.443a12.377 12.377 0 0 1-7.676-2.662 12.376 12.376 0 0 0 4.736-9.781c0-3.975-1.869-7.503-4.736-9.782a12.357 12.357 0 0 1 7.672-2.662c6.882 0 12.447 5.602 12.447 12.444Z" fill="#F79E1B"/></g><defs><clipPath id="a"><path fill="#fff" transform="translate(16 17.5)" d="M0 0h40.625v25H0z"/></clipPath></defs></svg>