<svg width="138" height="60" fill="none" xmlns="http://www.w3.org/2000/svg"><rect width="137.738" height="60" rx="10" fill="#F8F8F8"/><g clip-path="url(#a)"><path d="M38.808 20.682a.286.286 0 0 0-.259-.24c-.107-.01-2.208-.042-2.208-.042s-1.757-1.706-1.93-1.88c-.174-.173-.513-.12-.645-.081l-.882.273a6.18 6.18 0 0 0-.422-1.038c-.626-1.193-1.542-1.824-2.649-1.826h-.004c-.077 0-.153.007-.23.014a3.544 3.544 0 0 0-.1-.116c-.482-.515-1.1-.767-1.841-.745-1.43.041-2.853 1.074-4.007 2.907-.812 1.29-1.43 2.912-1.606 4.166l-2.814.872c-.829.26-.855.286-.963 1.067-.08.59-2.248 17.353-2.248 17.353l18.167 3.142 7.874-1.957s-3.213-21.72-3.233-21.869Zm-6.834-1.688-1.41.436c-.01-.723-.096-1.73-.433-2.6 1.085.205 1.618 1.432 1.843 2.164Zm-2.36.731-3.033.939c.293-1.122.85-2.24 1.532-2.973.254-.272.609-.576 1.03-.75.395.826.481 1.994.471 2.784Zm-1.947-3.772c.335-.008.618.066.86.225-.387.2-.76.488-1.11.864-.909.974-1.605 2.486-1.882 3.945l-2.491.772c.492-2.297 2.416-5.742 4.623-5.806Z" fill="#95BF47"/><path d="M38.55 20.442c-.107-.009-2.208-.04-2.208-.04s-1.757-1.707-1.93-1.88a.43.43 0 0 0-.245-.112l.001 26.098 7.873-1.957S38.83 20.832 38.81 20.683a.287.287 0 0 0-.26-.24Z" fill="#5E8E3E"/><path d="m29.803 24.49-.914 3.422s-1.02-.464-2.23-.388c-1.772.112-1.791 1.23-1.773 1.51.096 1.531 4.122 1.865 4.348 5.45.177 2.819-1.496 4.747-3.907 4.9-2.894.182-4.487-1.525-4.487-1.525l.613-2.608s1.604 1.21 2.887 1.129c.839-.053 1.138-.735 1.108-1.217-.126-1.996-3.404-1.878-3.611-5.158-.174-2.76 1.638-5.556 5.637-5.808 1.54-.1 2.33.294 2.33.294Z" fill="#fff"/><path d="M52.41 31.654c-.906-.491-1.371-.905-1.371-1.474 0-.725.646-1.19 1.655-1.19 1.175 0 2.224.491 2.224.491l.828-2.535s-.761-.595-3-.595c-3.117 0-5.277 1.785-5.277 4.294 0 1.422 1.009 2.509 2.354 3.284 1.087.62 1.475 1.06 1.475 1.707 0 .672-.544 1.216-1.552 1.216-1.503 0-2.922-.777-2.922-.777l-.88 2.535s1.312.88 3.518.88c3.207 0 5.51-1.578 5.51-4.423-.002-1.525-1.165-2.611-2.563-3.413Zm12.776-5.328c-1.577 0-2.819.75-3.775 1.888l-.052-.026 1.37-7.164h-3.57l-3.465 18.234h3.57l1.19-6.233c.465-2.354 1.68-3.802 2.819-3.802.801 0 1.112.544 1.112 1.32 0 .491-.052 1.086-.155 1.578l-1.345 7.138h3.57l1.396-7.372c.156-.776.26-1.706.26-2.328-.002-2.017-1.063-3.233-2.925-3.233Zm10.993 0c-4.294 0-7.139 3.88-7.139 8.199 0 2.767 1.707 4.991 4.915 4.991 4.215 0 7.06-3.776 7.06-8.199 0-2.56-1.5-4.99-4.836-4.99Zm-1.76 10.45c-1.215 0-1.732-1.035-1.732-2.328 0-2.043 1.06-5.38 3-5.38 1.268 0 1.68 1.087 1.68 2.147 0 2.198-1.059 5.56-2.947 5.56Zm15.726-10.45c-2.41 0-3.776 2.121-3.776 2.121h-.052l.208-1.914h-3.156a76.415 76.415 0 0 1-.724 4.733l-2.483 13.061h3.57l.982-5.276h.078s.732.465 2.095.465c4.19 0 6.931-4.293 6.931-8.639 0-2.404-1.06-4.55-3.673-4.55Zm-3.414 10.5c-.926 0-1.475-.517-1.475-.517l.595-3.336c.414-2.224 1.578-3.698 2.82-3.698 1.086 0 1.422 1.008 1.422 1.965 0 2.302-1.37 5.587-3.362 5.587Zm12.182-15.621c-1.138 0-2.043.905-2.043 2.069 0 1.06.672 1.785 1.681 1.785h.052c1.112 0 2.069-.75 2.095-2.07 0-1.034-.698-1.784-1.785-1.784Zm-4.991 18.053h3.568l2.432-12.647h-3.595l-2.405 12.646Zm15.079-12.673h-2.483l.128-.595c.207-1.216.932-2.302 2.122-2.302a3.72 3.72 0 0 1 1.137.181l.698-2.793s-.62-.31-1.94-.31c-1.267 0-2.534.362-3.491 1.19-1.216 1.034-1.785 2.533-2.069 4.034l-.103.595h-1.656l-.517 2.69h1.656l-1.888 9.983h3.569l1.888-9.983h2.457l.492-2.69Zm8.586.026s-2.232 5.622-3.233 8.69h-.052c-.068-.988-.88-8.69-.88-8.69h-3.75l2.147 11.612c.053.258.026.414-.077.596-.415.8-1.113 1.577-1.94 2.146-.673.492-1.423.802-2.017 1.009l.982 3.026c.725-.155 2.224-.75 3.492-1.94 1.629-1.525 3.129-3.88 4.681-7.087l4.371-9.363h-3.724v.001Z" fill="#000"/></g><defs><clipPath id="a"><path fill="#fff" transform="translate(16 15)" d="M0 0h105.738v30H0z"/></clipPath></defs></svg>