<svg width="95" height="60" fill="none" xmlns="http://www.w3.org/2000/svg"><rect width="94.954" height="60" rx="10" fill="#F8F8F8"/><g clip-path="url(#a)"><path d="M45.776 29.713v7.329H43.45V18.944h6.166a5.573 5.573 0 0 1 3.992 1.567 5.037 5.037 0 0 1 1.668 3.82 5.015 5.015 0 0 1-1.668 3.84c-1.078 1.028-2.409 1.542-3.992 1.541h-3.841v.002Zm0-8.54v6.317h3.898a3.073 3.073 0 0 0 2.3-.936 3.085 3.085 0 0 0 0-4.423 3.032 3.032 0 0 0-2.3-.96h-3.898v.001Zm14.858 3.082c1.718 0 3.075.46 4.07 1.378.994.918 1.49 2.177 1.49 3.777v7.631H63.97v-1.718h-.101c-.963 1.415-2.243 2.123-3.841 2.123-1.365 0-2.506-.404-3.424-1.213a3.874 3.874 0 0 1-1.378-3.032c0-1.282.484-2.3 1.453-3.058.968-.756 2.261-1.135 3.878-1.137 1.38 0 2.518.252 3.411.758v-.532a2.647 2.647 0 0 0-.96-2.057 3.292 3.292 0 0 0-2.244-.848c-1.299 0-2.326.548-3.083 1.643l-2.048-1.29c1.127-1.616 2.794-2.425 5.001-2.425Zm-3.008 8.996a1.858 1.858 0 0 0 .771 1.516 2.836 2.836 0 0 0 1.807.607 3.707 3.707 0 0 0 2.615-1.086c.77-.725 1.155-1.576 1.155-2.552-.725-.577-1.736-.866-3.032-.866-.945 0-1.732.227-2.363.683-.637.462-.953 1.024-.953 1.698Zm21.332-8.591L71.195 42.5h-2.4l2.881-6.243-5.104-11.598h2.527l3.69 8.895h.05l3.588-8.895h2.531Z" fill="#5F6368"/><path d="M36.38 28.134a12.27 12.27 0 0 0-.178-2.114h-9.805v4.004h5.616a4.812 4.812 0 0 1-2.077 3.16v2.598h3.352c1.962-1.809 3.093-4.485 3.093-7.648Z" fill="#4285F4"/><path d="M26.397 38.294c2.805 0 5.168-.922 6.89-2.51l-3.351-2.6c-.933.633-2.134.994-3.54.994-2.711 0-5.013-1.828-5.836-4.291h-3.453v2.678a10.398 10.398 0 0 0 9.29 5.729Z" fill="#34A853"/><path d="M20.56 29.887a6.229 6.229 0 0 1 0-3.98V23.23h-3.452a10.397 10.397 0 0 0 0 9.336l3.452-2.678Z" fill="#FBBC04"/><path d="M26.397 21.616a5.645 5.645 0 0 1 3.988 1.56l2.967-2.968a9.989 9.989 0 0 0-6.955-2.708 10.397 10.397 0 0 0-9.29 5.729l3.453 2.678c.823-2.463 3.125-4.291 5.837-4.291Z" fill="#EA4335"/></g><defs><clipPath id="a"><path fill="#fff" transform="translate(16 17.5)" d="M0 0h62.954v25H0z"/></clipPath></defs></svg>