<svg width="163" height="60" fill="none" xmlns="http://www.w3.org/2000/svg"><rect width="162.316" height="60" rx="10" fill="#F8F8F8"/><g clip-path="url(#a)" fill-rule="evenodd" clip-rule="evenodd"><path d="M67.422 37.056C62.606 40.61 55.624 42.5 49.612 42.5c-8.426 0-16.014-3.115-21.756-8.3-.45-.407-.05-.963.493-.648 6.195 3.605 13.856 5.776 21.768 5.776 5.338 0 11.206-1.108 16.605-3.398.814-.344 1.497.537.7 1.126Z" fill="#F79C34"/><path d="M69.426 34.768c-.616-.789-4.071-.374-5.624-.188-.47.057-.543-.354-.12-.652 2.757-1.936 7.275-1.377 7.8-.728.528.653-.14 5.182-2.722 7.343-.398.332-.776.155-.6-.283.582-1.453 1.883-4.703 1.266-5.492Z" fill="#F79C34"/><path d="M63.911 20.25v-1.882a.465.465 0 0 1 .477-.476h8.433a.47.47 0 0 1 .486.474v1.613c-.003.27-.23.624-.635 1.184L68.304 27.4c1.621-.038 3.336.205 4.81 1.033.332.187.421.463.447.734v2.008c0 .277-.303.596-.621.43-2.595-1.36-6.04-1.508-8.91.016-.293.157-.6-.159-.6-.436v-1.908c0-.305.007-.828.314-1.293l5.06-7.26h-4.406a.469.469 0 0 1-.487-.475ZM33.152 32h-2.565a.483.483 0 0 1-.46-.433L30.13 18.4c0-.263.221-.473.495-.473l2.39-.001c.249.013.45.202.465.442v1.719h.049c.622-1.663 1.795-2.439 3.376-2.439 1.604 0 2.61.776 3.329 2.439.622-1.663 2.035-2.439 3.543-2.439 1.078 0 2.251.444 2.97 1.442.814 1.108.647 2.715.647 4.128l-.003 8.31c0 .261-.22.472-.494.472h-2.562a.48.48 0 0 1-.461-.472v-6.98c0-.554.047-1.94-.073-2.465-.191-.888-.766-1.137-1.508-1.137-.623 0-1.27.415-1.533 1.08-.264.666-.24 1.773-.24 2.522v6.98a.484.484 0 0 1-.494.472h-2.562a.481.481 0 0 1-.461-.472L37 24.548c0-1.469.24-3.629-1.58-3.629-1.844 0-1.772 2.105-1.772 3.629l-.001 6.98a.484.484 0 0 1-.495.472ZM80.59 20.337c-1.892 0-2.011 2.575-2.011 4.183 0 1.607-.024 5.043 1.988 5.043 1.987 0 2.083-2.771 2.083-4.461 0-1.108-.049-2.439-.384-3.491-.287-.915-.862-1.274-1.676-1.274Zm-.023-2.689c3.807 0 5.866 3.271 5.866 7.427 0 4.016-2.275 7.203-5.866 7.203-3.737 0-5.772-3.27-5.772-7.342 0-4.101 2.059-7.288 5.772-7.288ZM91.372 32h-2.557a.481.481 0 0 1-.46-.472l-.004-13.172a.486.486 0 0 1 .493-.43h2.38a.488.488 0 0 1 .455.368v2.014h.048c.72-1.801 1.724-2.66 3.496-2.66 1.15 0 2.276.416 2.994 1.552.67 1.053.67 2.826.67 4.1v8.286a.486.486 0 0 1-.492.414h-2.57a.484.484 0 0 1-.458-.414v-7.148c0-1.441.168-3.548-1.604-3.548-.623 0-1.198.416-1.485 1.053-.36.804-.407 1.607-.407 2.495v7.09a.49.49 0 0 1-.5.472Zm-31.597-.032a.53.53 0 0 1-.606.06c-.852-.708-1.005-1.036-1.47-1.71-1.408 1.434-2.406 1.864-4.23 1.864-2.16 0-3.84-1.333-3.84-3.998 0-2.083 1.13-3.499 2.736-4.193 1.392-.61 3.336-.722 4.824-.889v-.332c0-.612.048-1.333-.312-1.86-.312-.473-.912-.668-1.44-.668-.979 0-1.847.502-2.062 1.54-.045.232-.213.461-.445.473l-2.487-.27c-.21-.047-.443-.216-.383-.536.565-2.975 3.22-3.902 5.635-3.927h.19c1.236.016 2.815.354 3.776 1.276 1.248 1.167 1.127 2.722 1.127 4.416v3.996c0 1.203.5 1.73.969 2.377.165.235.2.511-.008.683-.524.439-1.455 1.247-1.967 1.704l-.007-.006Zm-2.586-6.255c0 1 .024 1.832-.48 2.721-.408.722-1.056 1.166-1.776 1.166-.983 0-1.56-.75-1.56-1.86 0-2.186 1.96-2.583 3.816-2.583v.556Zm-31.043 6.255a.532.532 0 0 1-.606.06c-.853-.708-1.006-1.036-1.47-1.71-1.41 1.434-2.406 1.864-4.23 1.864-2.16 0-3.84-1.333-3.84-3.998 0-2.083 1.127-3.499 2.736-4.193 1.392-.61 3.335-.722 4.823-.889v-.332c0-.612.049-1.333-.311-1.86-.313-.473-.913-.668-1.44-.668-.979 0-1.85.502-2.062 1.54-.044.232-.213.461-.446.473l-2.486-.27c-.21-.047-.444-.216-.384-.536.564-2.975 3.22-3.902 5.636-3.927h.19c1.236.016 2.814.354 3.776 1.276 1.247 1.167 1.127 2.722 1.127 4.416v3.996c0 1.203.5 1.73.969 2.377.163.235.2.511-.009.683-.524.439-1.455 1.247-1.967 1.704l-.006-.006Zm-2.587-6.255c0 1 .024 1.832-.48 2.721-.407.722-1.056 1.166-1.776 1.166-.983 0-1.56-.75-1.56-1.86 0-2.186 1.96-2.583 3.816-2.583v.556Zm110.396 11.011v-.967c0-.276.135-.466.423-.449.536.076 1.294.153 1.832.042.703-.146 1.207-.645 1.505-1.328.42-.96.699-1.736.874-2.245l-5.337-13.22c-.09-.225-.116-.641.332-.641h1.866c.355 0 .5.225.58.447l3.869 10.739 3.694-10.74c.075-.22.226-.446.579-.446h1.759c.446 0 .421.415.332.64l-5.294 13.634c-.685 1.815-1.598 4.705-3.653 5.207-1.031.27-2.331.172-3.094-.148-.193-.096-.267-.355-.267-.525Zm-2.488-5.529a.45.45 0 0 1-.449.447h-1.316a.513.513 0 0 1-.514-.447l-.132-.896a7.69 7.69 0 0 1-2.152 1.275c-1.547.6-3.331.7-4.843-.229-1.093-.67-1.673-1.982-1.673-3.336 0-1.047.322-2.085 1.038-2.838.954-1.03 2.338-1.536 4.009-1.536 1.009 0 2.453.119 3.503.462v-1.802c0-1.832-.771-2.625-2.805-2.625-1.555 0-2.744.234-4.399.75-.265.008-.421-.194-.421-.44v-1.027c0-.247.211-.485.439-.558 1.182-.515 2.856-.836 4.636-.895 2.321 0 5.079.523 5.079 4.092v9.603Zm-2.529-2.631v-2.72c-.883-.24-2.344-.341-2.909-.341-.894 0-1.872.211-2.383.761-.381.403-.554.982-.554 1.541 0 .724.25 1.45.835 1.808.679.462 1.733.406 2.723.125.951-.27 1.845-.748 2.288-1.174Zm-16.869-8.854c2.919 0 3.714 2.296 3.714 4.924.016 1.772-.309 3.352-1.227 4.256-.687.677-1.454.862-2.608.862-1.028 0-2.38-.536-3.39-1.283v-7.515c1.051-.807 2.393-1.243 3.511-1.243Zm-3.958 17.486h-1.762a.45.45 0 0 1-.449-.448V18.387a.45.45 0 0 1 .449-.448h1.348c.284 0 .478.206.514.448l.142.962c1.263-1.122 2.889-1.84 4.439-1.84 4.34 0 5.767 3.575 5.767 7.294 0 3.979-2.183 7.175-5.875 7.175a6.183 6.183 0 0 1-4.126-1.57v6.34a.449.449 0 0 1-.447.448Z" fill="#333E47"/></g><defs><clipPath id="a"><path fill="#fff" transform="translate(16 17.5)" d="M0 0h130.316v25H0z"/></clipPath></defs></svg>