<svg width="152" height="60" fill="none" xmlns="http://www.w3.org/2000/svg"><rect width="151.725" height="60" rx="10" fill="#F8F8F8"/><g clip-path="url(#a)"><path d="M40.622 33.025c-1.67 6.697-8.452 10.772-15.15 9.102-6.694-1.67-10.769-8.452-9.099-15.148 1.67-6.697 8.451-10.773 15.147-9.104 6.696 1.67 10.771 8.453 9.102 15.15Z" fill="#F7931A"/><path d="M34.009 28.22c.248-1.663-1.018-2.557-2.75-3.153l.562-2.253-1.371-.342-.547 2.194c-.36-.09-.73-.175-1.099-.26l.55-2.207-1.37-.342-.562 2.252a45.505 45.505 0 0 1-.876-.206l.002-.007-1.891-.472-.365 1.465s1.017.233.996.248c.555.138.656.506.639.797l-.64 2.567c.038.01.088.024.143.046l-.145-.036-.897 3.595c-.068.17-.24.422-.629.326.014.02-.997-.249-.997-.249l-.68 1.57 1.784.445c.332.083.658.17.978.252l-.568 2.28 1.37.341.562-2.255c.375.102.738.196 1.093.284l-.56 2.244 1.372.342.567-2.275c2.339.443 4.098.264 4.838-1.85.596-1.704-.03-2.686-1.26-3.327.896-.207 1.57-.796 1.75-2.014Zm-3.134 4.395c-.424 1.703-3.291.782-4.22.551l.752-3.019c.93.232 3.911.691 3.468 2.468Zm.424-4.42c-.386 1.55-2.773.763-3.547.57l.683-2.738c.774.193 3.267.553 2.864 2.169Z" fill="#fff"/><path d="M52.63 25.065c1.013 0 1.889.181 2.625.538.74.36 1.35.845 1.839 1.455a6.13 6.13 0 0 1 1.074 2.152c.23.824.346 1.71.346 2.657 0 1.457-.267 2.832-.805 4.13a10.709 10.709 0 0 1-2.2 3.385 10.344 10.344 0 0 1-3.29 2.276c-1.263.56-2.636.839-4.11.839-.19 0-.526-.006-1-.016a14.593 14.593 0 0 1-1.626-.14 19.09 19.09 0 0 1-1.947-.382 9.751 9.751 0 0 1-1.946-.696l5.473-22.998 4.902-.76-1.96 8.162c.42-.19.843-.336 1.265-.443.422-.105.875-.16 1.36-.16Zm-4.113 13.543c.739 0 1.434-.182 2.088-.538a5.495 5.495 0 0 0 1.695-1.44 7.26 7.26 0 0 0 1.122-2.041c.274-.76.412-1.551.412-2.375 0-1.012-.17-1.801-.507-2.372-.337-.569-.96-.854-1.866-.854-.297 0-.68.056-1.154.157a2.88 2.88 0 0 0-1.283.666l-2.087 8.667c.126.023.238.044.332.064a3.436 3.436 0 0 0 .68.066h.569Zm15.081 3.449h-4.682l3.954-16.64h4.714l-3.986 16.64Zm2.278-18.667a2.906 2.906 0 0 1-1.772-.584c-.53-.388-.792-.984-.792-1.788 0-.442.09-.857.268-1.249a3.33 3.33 0 0 1 1.74-1.693 3.137 3.137 0 0 1 1.252-.252c.653 0 1.243.194 1.77.584.526.392.79.988.79 1.788 0 .444-.089.86-.269 1.25a3.285 3.285 0 0 1-1.738 1.692 3.078 3.078 0 0 1-1.249.252Zm5.812-2.119 4.904-.76-1.204 4.905h5.252l-.949 3.859h-5.22l-1.39 5.82a6.503 6.503 0 0 0-.222 1.36c-.023.422.03.786.157 1.092.126.306.352.543.68.71.327.17.794.255 1.407.255a7.49 7.49 0 0 0 1.474-.143c.473-.094.952-.224 1.437-.395l.35 3.608c-.634.232-1.319.431-2.057.6-.74.17-1.615.252-2.627.252-1.454 0-2.582-.216-3.385-.646-.803-.434-1.37-1.025-1.71-1.775-.334-.746-.484-1.607-.442-2.576.043-.972.19-1.993.443-3.07l3.102-13.095Zm8.746 14.141a11.7 11.7 0 0 1 .695-4.05 9.964 9.964 0 0 1 1.995-3.324c.862-.946 1.913-1.695 3.149-2.245 1.23-.547 2.608-.823 4.127-.823.95 0 1.799.09 2.545.27.75.182 1.429.417 2.043.711l-1.615 3.672c-.422-.171-.86-.322-1.313-.459-.453-.14-1.006-.206-1.66-.206-1.563 0-2.799.538-3.718 1.612-.916 1.075-1.377 2.521-1.377 4.336 0 1.075.232 1.944.697 2.61.464.665 1.32.996 2.562.996.613 0 1.205-.064 1.772-.19a8.72 8.72 0 0 0 1.52-.474l.349 3.764c-.592.23-1.245.438-1.962.62-.718.175-1.572.266-2.563.266-1.309 0-2.416-.192-3.322-.569-.906-.383-1.655-.89-2.245-1.534a5.784 5.784 0 0 1-1.282-2.264 9.289 9.289 0 0 1-.397-2.72Zm20.8 7.086c-1.117 0-2.088-.17-2.911-.508-.821-.337-1.501-.81-2.04-1.423-.538-.61-.941-1.333-1.217-2.166-.276-.833-.41-1.756-.41-2.766 0-1.268.204-2.535.616-3.798a10.754 10.754 0 0 1 1.82-3.416 9.728 9.728 0 0 1 2.94-2.487c1.158-.641 2.489-.964 3.984-.964 1.098 0 2.063.17 2.898.508.831.336 1.515.813 2.056 1.423a6.175 6.175 0 0 1 1.215 2.168c.276.831.412 1.756.412 2.767 0 1.264-.201 2.53-.599 3.799a10.977 10.977 0 0 1-1.772 3.415 9.292 9.292 0 0 1-2.926 2.482c-1.17.643-2.526.966-4.066.966Zm2.341-13.54a2.96 2.96 0 0 0-1.834.6 5.16 5.16 0 0 0-1.327 1.52 7.5 7.5 0 0 0-.81 2.008 8.66 8.66 0 0 0-.266 2.072c0 1.055.17 1.878.505 2.47.339.588.949.884 1.835.884.697 0 1.307-.2 1.836-.602a5.2 5.2 0 0 0 1.327-1.518c.359-.61.628-1.28.809-2.009a8.777 8.777 0 0 0 .268-2.072c0-1.053-.17-1.877-.508-2.468-.337-.589-.95-.885-1.835-.885Zm12.124 13.099h-4.686l3.954-16.64h4.717l-3.985 16.64Zm2.275-18.667a2.9 2.9 0 0 1-1.77-.584c-.528-.388-.793-.984-.793-1.788 0-.442.091-.857.27-1.249a3.29 3.29 0 0 1 .712-1.012 3.5 3.5 0 0 1 1.029-.681 3.112 3.112 0 0 1 1.247-.252c.655 0 1.246.194 1.773.584.527.392.793.988.793 1.788 0 .444-.095.86-.272 1.25a3.299 3.299 0 0 1-.709 1.014 3.48 3.48 0 0 1-1.028.678 3.09 3.09 0 0 1-1.252.252Zm5.084 2.784c.356-.104.752-.229 1.184-.365a17.44 17.44 0 0 1 3.26-.663c.663-.076 1.42-.112 2.26-.112 2.469 0 4.172.719 5.111 2.153.94 1.434 1.102 3.396.493 5.884l-2.154 8.984h-4.713l2.087-8.795c.127-.55.227-1.08.301-1.6.075-.513.071-.966-.017-1.358a1.628 1.628 0 0 0-.583-.95c-.309-.243-.776-.364-1.409-.364a9.52 9.52 0 0 0-1.866.192l-3.069 12.874h-4.715l3.83-15.88Z" fill="#4D4D4D"/></g><defs><clipPath id="a"><path fill="#fff" transform="translate(16 17.5)" d="M0 0h119.725v25H0z"/></clipPath></defs></svg>