<svg width="50" height="50" viewBox="0 0 50 50" fill="none" xmlns="http://www.w3.org/2000/svg">
<rect width="50" height="50" rx="25" fill="#E8F2EE"/>
<path d="M29.7835 14.5003C29.6271 15.2702 29.6271 16.0637 29.7835 16.8337H16.263L25.0713 24.606L30.9618 19.3327C31.4588 19.9475 32.0795 20.4597 32.7853 20.8318L25.0842 27.728L15.6668 19.419V33.167H34.3335V21.3837C35.1034 21.5401 35.8969 21.5401 36.6668 21.3837V34.3337C36.6668 34.6431 36.5439 34.9398 36.3251 35.1586C36.1063 35.3774 35.8096 35.5003 35.5002 35.5003H14.5002C14.1907 35.5003 13.894 35.3774 13.6752 35.1586C13.4564 34.9398 13.3335 34.6431 13.3335 34.3337V15.667C13.3335 15.3576 13.4564 15.0608 13.6752 14.842C13.894 14.6232 14.1907 14.5003 14.5002 14.5003H29.7835ZM35.5002 19.167C35.0405 19.167 34.5854 19.0765 34.1608 18.9006C33.7361 18.7247 33.3503 18.4669 33.0253 18.1419C32.7003 17.8169 32.4425 17.431 32.2666 17.0064C32.0907 16.5817 32.0002 16.1266 32.0002 15.667C32.0002 15.2074 32.0907 14.7522 32.2666 14.3276C32.4425 13.903 32.7003 13.5171 33.0253 13.1921C33.3503 12.8671 33.7361 12.6093 34.1608 12.4334C34.5854 12.2575 35.0405 12.167 35.5002 12.167C36.4284 12.167 37.3187 12.5357 37.975 13.1921C38.6314 13.8485 39.0002 14.7387 39.0002 15.667C39.0002 16.5953 38.6314 17.4855 37.975 18.1419C37.3187 18.7982 36.4284 19.167 35.5002 19.167Z" fill="#5BB5A2"/>
</svg>
