<svg width="40" height="40" viewBox="0 0 40 40" fill="none" xmlns="http://www.w3.org/2000/svg">
<rect width="40" height="40" rx="6" fill="#5BB5A2"/>
<g clip-path="url(#clip0_1552_1321)">
<path d="M19.6555 15.6203C18.8525 15.6203 17.6095 14.7073 16.3005 14.7403C14.5735 14.7623 12.9895 15.7413 12.0985 17.2923C10.3055 20.4053 11.6365 25.0033 13.3855 27.5333C14.2435 28.7653 15.2555 30.1513 16.5975 30.1073C17.8845 30.0523 18.3685 29.2713 19.9305 29.2713C21.4815 29.2713 21.9215 30.1073 23.2855 30.0743C24.6715 30.0523 25.5515 28.8203 26.3985 27.5773C27.3775 26.1473 27.7845 24.7613 27.8065 24.6843C27.7735 24.6733 25.1115 23.6503 25.0785 20.5703C25.0565 17.9963 27.1795 16.7643 27.2785 16.7093C26.0685 14.9383 24.2095 14.7403 23.5605 14.6963C21.8665 14.5643 20.4475 15.6203 19.6555 15.6203ZM22.5155 13.0243C23.2305 12.1663 23.7035 10.9673 23.5715 9.7793C22.5485 9.8233 21.3165 10.4613 20.5795 11.3193C19.9195 12.0783 19.3475 13.2993 19.5015 14.4653C20.6345 14.5533 21.8005 13.8823 22.5155 13.0243Z" fill="white"/>
</g>
<defs>
<clipPath id="clip0_1552_1321">
<rect width="22" height="22" fill="white" transform="translate(9 9)"/>
</clipPath>
</defs>
</svg>
