<svg width="40" height="40" viewBox="0 0 40 40" fill="none" xmlns="http://www.w3.org/2000/svg">
<rect width="40" height="40" rx="20" fill="#E8F2EE"/>
<path d="M21.8332 22.0642V23.98C21.0035 23.6867 20.1156 23.5967 19.244 23.7176C18.3723 23.8386 17.5424 24.1669 16.824 24.675C16.1055 25.1832 15.5195 25.8563 15.1151 26.6378C14.7107 27.4193 14.4997 28.2865 14.4998 29.1665L12.6665 29.1656C12.6662 28.0462 12.9222 26.9417 13.4148 25.9365C13.9074 24.9314 14.6235 24.0524 15.5084 23.3668C16.3932 22.6812 17.4232 22.2073 18.5196 21.9813C19.6159 21.7554 20.7494 21.7834 21.8332 22.0633V22.0642ZM19.9998 20.9165C16.9611 20.9165 14.4998 18.4553 14.4998 15.4165C14.4998 12.3778 16.9611 9.9165 19.9998 9.9165C23.0386 9.9165 25.4998 12.3778 25.4998 15.4165C25.4998 18.4553 23.0386 20.9165 19.9998 20.9165ZM19.9998 19.0832C22.0257 19.0832 23.6665 17.4423 23.6665 15.4165C23.6665 13.3907 22.0257 11.7498 19.9998 11.7498C17.974 11.7498 16.3332 13.3907 16.3332 15.4165C16.3332 17.4423 17.974 19.0832 19.9998 19.0832ZM27.3332 24.5832H30.0832V26.4165H27.3332V29.6248L22.7498 25.4998L27.3332 21.3748V24.5832Z" fill="#5BB5A2"/>
</svg>
