<svg width="40" height="40" fill="none" xmlns="http://www.w3.org/2000/svg"><rect width="40" height="40" rx="6" fill="#5BB5A2"/><path d="M29.163 25.71c0 .667-.372 1.95-1.205 2.655-.166.129-.334.056-.261-.13.243-.595.8-1.969.538-2.285-.183-.24-.944-.223-1.593-.167-.297.038-.556.055-.759.096-.186.016-.225-.149-.038-.277.24-.17.5-.298.798-.393 1.054-.315 2.273-.125 2.447.076.033.039.074.147.074.425h-.001Zm-1.761 1.187a6.81 6.81 0 0 1-.761.504c-1.945 1.169-4.464 1.781-6.653 1.781-3.523 0-6.673-1.299-9.064-3.472-.204-.167-.035-.409.204-.278 2.576 1.504 5.764 2.413 9.065 2.413a17.856 17.856 0 0 0 6.449-1.225c.149-.056.315-.132.461-.185.336-.151.632.223.299.462Zm-5.656-10.11c0-.955.038-1.517-.279-2-.28-.396-.763-.634-1.437-.597-.732.04-1.517.52-1.718 1.399-.038.202-.157.4-.4.443l-2.232-.284c-.16-.037-.402-.159-.323-.478.48-2.523 2.635-3.402 4.673-3.52h.48c1.118 0 2.554.32 3.474 1.159 1.115 1.041.997 2.44.997 3.96v3.6c0 1.08.437 1.558.878 2.12.12.201.16.438-.041.601a69.77 69.77 0 0 1-1.757 1.516c-.16.122-.448.135-.56.041-.705-.59-.878-.919-1.315-1.52-.76.799-1.399 1.24-2.159 1.48a6.454 6.454 0 0 1-1.635.197c-1.916 0-3.434-1.194-3.434-3.556 0-1.879 1-3.156 2.475-3.76 1.476-.605 3.621-.797 4.312-.8l.001-.002Zm-.438 4.759c.477-.8.437-1.454.437-2.92-.597 0-1.197.041-1.715.163-.958.278-1.718.881-1.718 2.159 0 .999.52 1.68 1.398 1.68.121 0 .227-.015.32-.042.614-.17.997-.479 1.278-1.04Z" fill="#fff"/></svg>