<svg width="40" height="40" fill="none" xmlns="http://www.w3.org/2000/svg"><rect width="40" height="40" rx="6" fill="#5BB5A2"/><path d="M19.655 15.62c-.803 0-2.046-.913-3.355-.88-1.727.022-3.31 1.001-4.202 2.552-1.793 3.113-.462 7.711 1.287 10.241.858 1.232 1.87 2.618 3.213 2.574 1.287-.055 1.77-.836 3.332-.836 1.552 0 1.992.836 3.355.803 1.387-.022 2.267-1.254 3.113-2.497a11.055 11.055 0 0 0 1.409-2.893c-.034-.01-2.695-1.034-2.729-4.114-.021-2.574 2.102-3.806 2.2-3.86-1.21-1.772-3.069-1.97-3.717-2.014-1.695-.132-3.113.924-3.905.924Zm2.86-2.596c.715-.858 1.188-2.057 1.056-3.245-1.023.044-2.255.682-2.992 1.54-.66.76-1.232 1.98-1.078 3.146 1.133.088 2.3-.583 3.014-1.44Z" fill="#fff"/></svg>