<svg width="40" height="40" fill="none" xmlns="http://www.w3.org/2000/svg"><rect width="40" height="40" rx="6" fill="#5BB5A2"/><path d="M11.809 15.884A9.163 9.163 0 0 1 20 10.834c2.47 0 4.546.907 6.133 2.387l-2.628 2.63c-.951-.91-2.16-1.372-3.505-1.372-2.388 0-4.409 1.613-5.129 3.78A5.507 5.507 0 0 0 14.584 20c0 .605.104 1.192.287 1.742.72 2.167 2.741 3.78 5.13 3.78 1.232 0 2.282-.326 3.103-.876a4.218 4.218 0 0 0 1.83-2.767H20v-3.546h8.633c.108.6.167 1.225.167 1.875 0 2.792-.999 5.143-2.733 6.738-1.517 1.4-3.592 2.22-6.067 2.22A9.162 9.162 0 0 1 10.834 20c0-1.48.353-2.878.975-4.116Z" fill="#fff"/></svg>