<svg width="40" height="40" fill="none" xmlns="http://www.w3.org/2000/svg"><rect width="40" height="40" rx="6" fill="#5BB5A2"/><path d="M29.315 14.185c-.7.31-1.442.513-2.202.603a3.846 3.846 0 0 0 1.687-2.121 7.657 7.657 0 0 1-2.435.93 3.833 3.833 0 0 0-6.532 3.496 10.884 10.884 0 0 1-7.901-4.005 3.833 3.833 0 0 0 1.186 5.119 3.82 3.82 0 0 1-1.736-.48v.047a3.837 3.837 0 0 0 3.075 3.76 3.858 3.858 0 0 1-1.732.066 3.836 3.836 0 0 0 3.58 2.663 7.694 7.694 0 0 1-5.674 1.587 10.844 10.844 0 0 0 5.876 1.724c7.052 0 10.908-5.842 10.908-10.909 0-.165-.005-.332-.012-.495a7.787 7.787 0 0 0 1.913-1.984v-.001Z" fill="#fff"/></svg>