<svg width="94" height="60" viewBox="0 0 94 60" fill="none" xmlns="http://www.w3.org/2000/svg">
<rect width="93.5984" height="60" rx="10" fill="#F8F8F8"/>
<g clip-path="url(#clip0_703_811)">
<path d="M56.112 20.0308C51.7426 20.0308 47.838 22.2955 47.838 26.4797C47.838 31.2783 54.763 31.6097 54.763 34.0203C54.763 35.0354 53.5998 35.944 51.6131 35.944C48.7935 35.944 46.6862 34.6744 46.6862 34.6744L45.7845 38.8967C45.7845 38.8967 48.2121 39.9692 51.4351 39.9692C56.2122 39.9692 59.9712 37.5932 59.9712 33.3375C59.9712 28.2669 53.0173 27.9454 53.0173 25.7079C53.0173 24.9127 53.9722 24.0415 55.9533 24.0415C58.1885 24.0415 60.0121 24.9649 60.0121 24.9649L60.8946 20.8868C60.8946 20.8868 58.9103 20.0308 56.112 20.0308ZM16.1366 20.3385L16.0308 20.9541C16.0308 20.9541 17.869 21.2905 19.5246 21.9616C21.6563 22.7311 21.8081 23.1791 22.1671 24.5705L26.0793 39.6518H31.3236L39.4028 20.3385H34.1706L28.9792 33.4697L26.8608 22.3391C26.6665 21.0652 25.6824 20.3385 24.4779 20.3385H16.1366ZM41.5068 20.3385L37.4023 39.6518H42.3917L46.4818 20.3385H41.5068ZM69.3345 20.3385C68.1314 20.3385 67.4939 20.9827 67.0261 22.1083L59.7164 39.6518H64.9486L65.9609 36.7278H72.3354L72.9509 39.6518H77.5676L73.54 20.3385H69.3345ZM70.015 25.5564L71.5659 32.8036H67.4109L70.015 25.5564Z" fill="#1434CB"/>
</g>
<defs>
<clipPath id="clip0_703_811">
<rect width="61.5984" height="20" fill="white" transform="translate(16 20)"/>
</clipPath>
</defs>
</svg>
