<svg width="163" height="60" viewBox="0 0 163 60" fill="none" xmlns="http://www.w3.org/2000/svg">
<rect width="162.316" height="60" rx="10" fill="#F8F8F8"/>
<g clip-path="url(#clip0_703_826)">
<path fill-rule="evenodd" clip-rule="evenodd" d="M67.4217 37.0561C62.606 40.6102 55.6241 42.5001 49.6117 42.5001C41.1858 42.5001 33.5979 39.3854 27.8556 34.2005C27.4053 33.793 27.8069 33.2371 28.3488 33.5523C34.5436 37.1573 42.2054 39.3285 50.1174 39.3285C55.4551 39.3285 61.3228 38.2204 66.7218 35.9303C67.5361 35.5855 68.219 36.467 67.4217 37.0561Z" fill="#F79C34"/>
<path fill-rule="evenodd" clip-rule="evenodd" d="M69.4264 34.7676C68.8099 33.9791 65.3548 34.394 63.8023 34.5801C63.332 34.6369 63.2589 34.2257 63.6827 33.9282C66.4394 31.9917 70.9568 32.5506 71.4817 33.1995C72.0103 33.8529 71.3422 38.3822 68.7597 40.5431C68.3618 40.8753 67.9838 40.6981 68.1603 40.2596C68.742 38.8074 70.0429 35.5575 69.4264 34.7676Z" fill="#F79C34"/>
<path fill-rule="evenodd" clip-rule="evenodd" d="M63.9113 20.2491V18.368C63.9128 18.0816 64.1283 17.8911 64.3882 17.8919L72.8207 17.8911C73.0902 17.8911 73.3072 18.0868 73.3072 18.3658V19.9789C73.3043 20.2499 73.0761 20.6028 72.6723 21.1631L68.304 27.4C69.9252 27.3624 71.6402 27.6053 73.1138 28.4329C73.446 28.6196 73.5354 28.8965 73.5612 29.1674V31.1748C73.5612 31.4516 73.2585 31.7713 72.9396 31.6052C70.3446 30.2453 66.9005 30.0969 64.0301 31.6214C63.737 31.778 63.4307 31.462 63.4307 31.1851V29.2767C63.4307 28.9718 63.4366 28.4491 63.7444 27.984L68.8045 20.7239L64.3985 20.7231C64.1291 20.7231 63.9128 20.5312 63.9113 20.2491Z" fill="#333E47"/>
<path fill-rule="evenodd" clip-rule="evenodd" d="M33.1521 32.0004H30.5866C30.3423 31.9849 30.1474 31.8018 30.1274 31.567L30.1297 18.4C30.1297 18.1372 30.3511 17.9268 30.625 17.9268L33.0141 17.926C33.2636 17.9386 33.4644 18.1276 33.4799 18.3682V20.0869H33.5286C34.151 18.4244 35.3241 17.6484 36.9048 17.6484C38.509 17.6484 39.5153 18.4244 40.2336 20.0869C40.856 18.4244 42.269 17.6484 43.7773 17.6484C44.8552 17.6484 46.0283 18.0921 46.7466 19.0895C47.5609 20.1984 47.3941 21.8049 47.3941 23.2179L47.3911 31.5272C47.3911 31.7892 47.1704 32.0004 46.8965 32.0004H44.3347C44.0763 31.9841 43.874 31.7804 43.874 31.5279L43.8733 24.5476C43.8733 23.9939 43.9213 22.6089 43.8009 22.0825C43.6097 21.1951 43.0353 20.9455 42.2934 20.9455C41.6703 20.9455 41.0236 21.3612 40.76 22.0256C40.4964 22.6916 40.5208 23.799 40.5208 24.5476V31.5272C40.5208 31.7892 40.2993 32.0004 40.0262 32.0004H37.4636C37.206 31.9841 37.0029 31.7804 37.0029 31.5279L37 24.5476C37 23.0791 37.2399 20.919 35.4201 20.919C33.5759 20.919 33.6482 23.0238 33.6482 24.5476L33.6468 31.5272C33.6468 31.7892 33.4253 32.0004 33.1521 32.0004Z" fill="#333E47"/>
<path fill-rule="evenodd" clip-rule="evenodd" d="M80.5896 20.3365C78.6981 20.3365 78.5786 22.9123 78.5786 24.5195C78.5786 26.1267 78.5549 29.5626 80.5667 29.5626C82.5541 29.5626 82.6501 26.7919 82.6501 25.102C82.6501 23.9939 82.6014 22.6635 82.2662 21.6107C81.979 20.696 81.4039 20.3365 80.5896 20.3365ZM80.5667 17.6484C84.374 17.6484 86.433 20.919 86.433 25.0747C86.433 29.0909 84.1584 32.278 80.5667 32.278C76.8303 32.278 74.7949 29.0082 74.7949 24.9359C74.7949 20.8348 76.854 17.6484 80.5667 17.6484Z" fill="#333E47"/>
<path fill-rule="evenodd" clip-rule="evenodd" d="M91.3716 32.0004H88.815C88.5588 31.9841 88.355 31.7804 88.355 31.5279L88.3506 18.3564C88.3727 18.115 88.5854 17.9268 88.8437 17.9268L91.2232 17.926C91.4476 17.9378 91.6322 18.0899 91.6794 18.2944V20.3084H91.7274C92.4465 18.507 93.4513 17.6484 95.2231 17.6484C96.3726 17.6484 97.4985 18.0641 98.2168 19.2003C98.8872 20.2531 98.8872 22.0256 98.8872 23.3006V31.5862C98.8591 31.8195 98.6494 32.0004 98.3955 32.0004H95.8241C95.5864 31.9856 95.3951 31.8107 95.3671 31.5862V24.4376C95.3671 22.9965 95.5354 20.8902 93.7628 20.8902C93.1405 20.8902 92.5654 21.3058 92.2782 21.9429C91.9186 22.7469 91.8707 23.5502 91.8707 24.4376V31.5272C91.8662 31.7892 91.6447 32.0004 91.3716 32.0004Z" fill="#333E47"/>
<path fill-rule="evenodd" clip-rule="evenodd" d="M59.7747 31.9677C59.6056 32.1198 59.3613 32.1301 59.1693 32.0275C58.3173 31.3195 58.1645 30.9924 57.6987 30.3176C56.2908 31.7521 55.2934 32.1825 53.4691 32.1825C51.3097 32.1825 49.6294 30.8492 49.6294 28.1841C49.6294 26.1014 50.7582 24.6854 52.3654 23.9914C53.7571 23.3801 55.7009 23.2694 57.1893 23.1025V22.7696C57.1893 22.1576 57.2373 21.437 56.877 20.9092C56.5647 20.4367 55.9652 20.2425 55.4374 20.2425C54.4584 20.2425 53.5895 20.7438 53.3754 21.7825C53.3303 22.0136 53.162 22.2432 52.9302 22.255L50.443 21.9855C50.2333 21.9376 50 21.7692 50.0598 21.4488C50.6246 18.4743 53.2809 17.5471 55.695 17.522H55.8855C57.1213 17.5375 58.6998 17.8763 59.661 18.7984C60.9094 19.9649 60.7883 21.5197 60.7883 23.214V27.2103C60.7883 28.4129 61.2881 28.94 61.7569 29.5875C61.9216 29.8215 61.9577 30.0984 61.7488 30.2697C61.2246 30.7089 60.2937 31.5173 59.7821 31.9736L59.7747 31.9677ZM57.1893 25.7131C57.1893 26.7127 57.2129 27.5455 56.7094 28.4343C56.3011 29.1556 55.6529 29.6001 54.9331 29.6001C53.9497 29.6001 53.3739 28.8507 53.3739 27.7396C53.3739 25.5543 55.3333 25.1571 57.1893 25.1571V25.7131Z" fill="#333E47"/>
<path fill-rule="evenodd" clip-rule="evenodd" d="M26.146 31.9677C25.9762 32.1198 25.7311 32.1301 25.5399 32.0275C24.6872 31.3195 24.5344 30.9924 24.0693 30.3176C22.6607 31.7521 21.664 32.1825 19.8397 32.1825C17.6803 32.1825 16 30.8492 16 28.1841C16 26.1014 17.1273 24.6854 18.736 23.9914C20.1277 23.3801 22.0715 23.2694 23.5591 23.1025V22.7696C23.5591 22.1576 23.6079 21.437 23.2476 20.9092C22.9353 20.4367 22.3351 20.2425 21.808 20.2425C20.829 20.2425 19.9586 20.7438 19.746 21.7825C19.7017 22.0136 19.5326 22.2432 19.3001 22.255L16.8136 21.9855C16.6032 21.9376 16.3699 21.7692 16.4304 21.4488C16.9937 18.4743 19.6507 17.5471 22.0656 17.522H22.2561C23.492 17.5375 25.0704 17.8763 26.0316 18.7984C27.2793 19.9649 27.1589 21.5197 27.1589 23.214V27.2103C27.1589 28.4129 27.6587 28.94 28.1275 29.5875C28.2907 29.8215 28.3284 30.0984 28.1194 30.2697C27.5953 30.7089 26.6636 31.5173 26.1519 31.9736L26.146 31.9677ZM23.5591 25.7131C23.5591 26.7127 23.5835 27.5455 23.0793 28.4343C22.6717 29.1556 22.0235 29.6001 21.303 29.6001C20.3196 29.6001 19.7438 28.8507 19.7438 27.7396C19.7438 25.5543 21.7039 25.1571 23.5591 25.1571V25.7131Z" fill="#333E47"/>
<path fill-rule="evenodd" clip-rule="evenodd" d="M133.955 36.7237C133.955 36.39 133.955 36.0902 133.955 35.7565C133.955 35.4812 134.09 35.2914 134.378 35.3084C134.914 35.3844 135.672 35.4605 136.21 35.3497C136.913 35.2036 137.417 34.7052 137.715 34.0223C138.135 33.0611 138.414 32.2859 138.589 31.7773L133.252 18.5563C133.162 18.3319 133.136 17.9155 133.584 17.9155H135.45C135.805 17.9155 135.95 18.1414 136.03 18.3629L139.899 29.1018L143.593 18.3629C143.668 18.1429 143.819 17.9155 144.172 17.9155H145.931C146.377 17.9155 146.352 18.3312 146.263 18.5563L140.969 32.19C140.284 34.0046 139.371 36.8949 137.316 37.397C136.285 37.6664 134.985 37.569 134.222 37.2493C134.029 37.1526 133.955 36.8942 133.955 36.7237Z" fill="#333E47"/>
<path fill-rule="evenodd" clip-rule="evenodd" d="M131.467 31.1949C131.467 31.4407 131.265 31.6423 131.018 31.6423H129.702C129.418 31.6423 129.224 31.437 129.188 31.1949L129.056 30.2994C128.451 30.811 127.709 31.2606 126.904 31.5736C125.357 32.1746 123.573 32.2742 122.061 31.3455C120.968 30.6744 120.388 29.3625 120.388 28.0093C120.388 26.9624 120.71 25.9244 121.426 25.1706C122.38 24.1407 123.764 23.635 125.435 23.635C126.444 23.635 127.888 23.7539 128.938 24.0972V22.2951C128.938 20.4627 128.167 19.6698 126.133 19.6698C124.578 19.6698 123.389 19.9045 121.734 20.4191C121.469 20.428 121.313 20.2264 121.313 19.9806V18.9529C121.313 18.7063 121.524 18.4679 121.752 18.3955C122.934 17.8802 124.608 17.5591 126.388 17.5C128.709 17.5 131.467 18.0234 131.467 21.5922V31.1949ZM128.938 28.5637V25.8447C128.055 25.6032 126.594 25.5028 126.029 25.5028C125.135 25.5028 124.157 25.714 123.646 26.264C123.265 26.6671 123.092 27.2459 123.092 27.8055C123.092 28.529 123.342 29.2547 123.927 29.6135C124.606 30.0749 125.66 30.0188 126.65 29.7375C127.601 29.4673 128.495 28.9897 128.938 28.5637Z" fill="#333E47"/>
<path fill-rule="evenodd" clip-rule="evenodd" d="M112.069 19.7106C114.988 19.7106 115.783 22.0058 115.783 24.6341C115.799 26.4059 115.474 27.9858 114.556 28.8902C113.869 29.5672 113.102 29.7518 111.948 29.7518C110.92 29.7518 109.568 29.2158 108.558 28.4694V20.9545C109.609 20.1469 110.951 19.7106 112.069 19.7106ZM108.111 37.1957H106.349C106.102 37.1957 105.9 36.9942 105.9 36.7483C105.9 30.6281 105.9 24.5071 105.9 18.3868C105.9 18.141 106.102 17.9394 106.349 17.9394H107.697C107.981 17.9394 108.175 18.1447 108.211 18.3868L108.353 19.3488C109.616 18.2274 111.242 17.5083 112.792 17.5083C117.132 17.5083 118.559 21.0845 118.559 24.8031C118.559 28.7817 116.376 31.9784 112.684 31.9784C111.13 31.9784 109.676 31.4047 108.558 30.4081V36.7483C108.558 36.9942 108.357 37.1957 108.111 37.1957Z" fill="#333E47"/>
</g>
<defs>
<clipPath id="clip0_703_826">
<rect width="130.316" height="25" fill="white" transform="translate(16 17.5)"/>
</clipPath>
</defs>
</svg>
