<svg width="73" height="60" viewBox="0 0 73 60" fill="none" xmlns="http://www.w3.org/2000/svg">
<rect width="72.625" height="60" rx="10" fill="#F8F8F8"/>
<g clip-path="url(#clip0_703_805)">
<path d="M41.5479 20.1621H30.6587V39.7256H41.5479V20.1621Z" fill="#FF5A00"/>
<path d="M31.3834 29.9436C31.3834 25.9689 33.2519 22.4412 36.1192 20.1619C34.009 18.5027 31.3471 17.5 28.4436 17.5C21.5654 17.5 16 23.0654 16 29.9436C16 36.8218 21.5654 42.3872 28.4436 42.3872C31.3471 42.3872 34.009 41.3845 36.1192 39.7254C33.2479 37.4783 31.3834 33.9183 31.3834 29.9436Z" fill="#EB001B"/>
<path d="M56.2383 29.9436C56.2383 36.8218 50.6729 42.3872 43.7947 42.3872C40.8912 42.3872 38.2293 41.3845 36.1191 39.7254C39.0227 37.442 40.855 33.9183 40.855 29.9436C40.855 25.9689 38.9864 22.4412 36.1191 20.1619C38.2253 18.5027 40.8872 17.5 43.7907 17.5C50.6729 17.5 56.2383 23.1016 56.2383 29.9436Z" fill="#F79E1B"/>
</g>
<defs>
<clipPath id="clip0_703_805">
<rect width="40.625" height="25" fill="white" transform="translate(16 17.5)"/>
</clipPath>
</defs>
</svg>
