<svg width="138" height="60" viewBox="0 0 138 60" fill="none" xmlns="http://www.w3.org/2000/svg">
<rect width="137.738" height="60" rx="10" fill="#F8F8F8"/>
<g clip-path="url(#clip0_703_764)">
<path d="M38.8078 20.682C38.7873 20.533 38.6571 20.4503 38.5491 20.4413C38.4419 20.4323 36.3412 20.4004 36.3412 20.4004C36.3412 20.4004 34.5843 18.6943 34.4108 18.5207C34.2372 18.3472 33.8983 18.3996 33.7665 18.4389C33.7649 18.4397 33.4366 18.5412 32.884 18.7123C32.7915 18.4127 32.6556 18.0443 32.4615 17.6743C31.8361 16.4807 30.92 15.8495 29.8132 15.8478C29.8116 15.8478 29.8107 15.8478 29.8091 15.8478C29.7321 15.8478 29.656 15.8552 29.5791 15.8617C29.5463 15.8225 29.5136 15.784 29.4792 15.7463C28.997 15.2306 28.3789 14.9792 27.638 15.0013C26.2087 15.0423 24.785 16.0746 23.6307 17.9084C22.8186 19.1986 22.2005 20.8196 22.0253 22.0745C20.3839 22.5829 19.2361 22.9382 19.2108 22.9464C18.3823 23.2067 18.3561 23.2321 18.248 24.0131C18.1678 24.6033 16 41.3662 16 41.3662L34.1668 44.5082L42.0406 42.5508C42.0406 42.5508 38.8282 20.831 38.8078 20.682ZM31.9745 18.9939C31.5561 19.1233 31.0805 19.2706 30.5647 19.4303C30.5541 18.7066 30.4681 17.6996 30.1308 16.8294C31.2156 17.0349 31.7493 18.2621 31.9745 18.9939ZM29.6142 19.725C28.6622 20.0197 27.6233 20.3414 26.5811 20.664C26.8742 19.5416 27.4301 18.4241 28.1129 17.6914C28.3666 17.4188 28.7219 17.1151 29.1427 16.9416C29.5381 17.7668 29.6241 18.935 29.6142 19.725ZM27.6667 15.9526C28.0023 15.9453 28.2848 16.0189 28.5263 16.1778C28.1399 16.3783 27.7665 16.6665 27.4162 17.0423C26.5083 18.0165 25.8124 19.5285 25.5349 20.9874C24.6696 21.255 23.8231 21.5179 23.0437 21.7586C23.5358 19.4622 25.4604 16.0165 27.6667 15.9526Z" fill="#95BF47"/>
<path d="M38.5497 20.4424C38.4425 20.4334 36.3418 20.4015 36.3418 20.4015C36.3418 20.4015 34.585 18.6954 34.4115 18.5218C34.3468 18.4571 34.2592 18.4236 34.1675 18.4097L34.1683 44.5077L42.0414 42.5511C42.0414 42.5511 38.8289 20.8321 38.8085 20.6831C38.788 20.5341 38.657 20.4514 38.5497 20.4424Z" fill="#5E8E3E"/>
<path d="M29.8033 24.4906L28.8889 27.9117C28.8889 27.9117 27.8689 27.4475 26.6597 27.5237C24.8865 27.6359 24.8676 28.7541 24.8857 29.0349C24.9823 30.565 29.0076 30.899 29.2336 34.4831C29.4112 37.3025 27.7378 39.2313 25.3269 39.3836C22.4329 39.5661 20.8398 37.8592 20.8398 37.8592L21.453 35.251C21.453 35.251 23.0568 36.461 24.3404 36.3799C25.1787 36.3267 25.4783 35.6448 25.448 35.1626C25.322 33.1667 22.0441 33.2846 21.837 30.005C21.6626 27.2454 23.4751 24.4488 27.4742 24.1967C29.0149 24.0976 29.8033 24.4906 29.8033 24.4906Z" fill="white"/>
<path d="M52.4093 31.6541C51.504 31.1629 51.0387 30.7488 51.0387 30.1796C51.0387 29.4553 51.685 28.99 52.6943 28.99C53.8693 28.99 54.9183 29.4813 54.9183 29.4813L55.7457 26.9463C55.7457 26.9463 54.9849 26.3511 52.7455 26.3511C49.6291 26.3511 47.4692 28.1358 47.4692 30.6448C47.4692 32.0674 48.4777 33.1538 49.8231 33.9293C50.9096 34.5496 51.2977 34.9897 51.2977 35.6361C51.2977 36.3084 50.7545 36.8516 49.746 36.8516C48.243 36.8516 46.8237 36.0754 46.8237 36.0754L45.9443 38.6104C45.9443 38.6104 47.2557 39.4897 49.4618 39.4897C52.6692 39.4897 54.9711 37.912 54.9711 35.0669C54.9703 33.542 53.8067 32.4555 52.4093 31.6541Z" fill="black"/>
<path d="M65.1865 26.3262C63.6087 26.3262 62.3672 27.0764 61.4107 28.214L61.3587 28.188L62.7293 21.0239H59.1599L55.6943 39.2578H59.2638L60.4534 33.025C60.9186 30.6711 62.1342 29.2233 63.2726 29.2233C64.074 29.2233 64.385 29.7665 64.385 30.5428C64.385 31.034 64.333 31.6292 64.2299 32.1205L62.8852 39.2586H66.4549L67.8511 31.8874C68.0065 31.1112 68.1103 30.1807 68.1103 29.5595C68.1088 27.5417 67.0485 26.3262 65.1865 26.3262Z" fill="black"/>
<path d="M76.1786 26.3262C71.8846 26.3262 69.0405 30.2059 69.0405 34.5248C69.0405 37.292 70.7471 39.516 73.9546 39.516C78.1704 39.516 81.0154 35.7403 81.0154 31.3174C81.0154 28.7573 79.515 26.3262 76.1786 26.3262ZM74.4199 36.7756C73.2041 36.7756 72.6868 35.7411 72.6868 34.4476C72.6868 32.4047 73.7476 29.0683 75.6872 29.0683C76.9546 29.0683 77.3677 30.1547 77.3677 31.2151C77.3677 33.4132 76.3084 36.7756 74.4199 36.7756Z" fill="black"/>
<path d="M90.1452 26.3262C87.7359 26.3262 86.3687 28.4471 86.3687 28.4471H86.3175L86.5246 26.5332H83.3692C83.2142 27.8267 82.929 29.7917 82.6452 31.2663L80.1621 44.327H83.7316L84.7138 39.0507H84.7919C84.7919 39.0507 85.5242 39.516 86.887 39.516C91.0767 39.516 93.818 35.2231 93.818 30.8774C93.818 28.4731 92.7572 26.3262 90.1452 26.3262ZM86.7311 36.8267C85.8046 36.8267 85.2562 36.3095 85.2562 36.3095L85.8513 32.9731C86.2654 30.7491 87.429 29.2745 88.6708 29.2745C89.7572 29.2745 90.0931 30.283 90.0931 31.2403C90.0931 33.5423 88.7224 36.8267 86.7311 36.8267Z" fill="black"/>
<path d="M98.9131 21.2051C97.7755 21.2051 96.8701 22.1104 96.8701 23.274C96.8701 24.3345 97.5424 25.0588 98.5511 25.0588H98.6027C99.7152 25.0588 100.672 24.3085 100.698 22.9898C100.698 21.9553 99.9995 21.2051 98.9131 21.2051Z" fill="black"/>
<path d="M93.9219 39.2575H97.4904L99.9224 26.6108H96.3268L93.9219 39.2575Z" fill="black"/>
<path d="M109.001 26.5851H106.518L106.646 25.9899C106.853 24.7744 107.578 23.6879 108.768 23.6879C109.402 23.6879 109.905 23.869 109.905 23.869L110.603 21.0758C110.603 21.0758 109.983 20.7656 108.663 20.7656C107.396 20.7656 106.129 21.1277 105.172 21.9552C103.956 22.9897 103.387 24.4894 103.103 25.9899L103 26.5851H101.344L100.827 29.2752H102.483L100.595 39.2585H104.164L106.052 29.2752H108.509L109.001 26.5851Z" fill="black"/>
<path d="M117.587 26.6112C117.587 26.6112 115.355 32.2325 114.354 35.301H114.302C114.234 34.3128 113.422 26.6112 113.422 26.6112H109.672L111.819 38.2233C111.872 38.4815 111.845 38.6374 111.742 38.8185C111.327 39.6199 110.629 40.3962 109.802 40.9654C109.129 41.4566 108.379 41.7668 107.785 41.9738L108.767 45.0001C109.492 44.845 110.991 44.2499 112.259 43.0603C113.888 41.5346 115.388 39.1806 116.94 35.9733L121.311 26.6104H117.587V26.6112Z" fill="black"/>
</g>
<defs>
<clipPath id="clip0_703_764">
<rect width="105.738" height="30" fill="white" transform="translate(16 15)"/>
</clipPath>
</defs>
</svg>
