<svg width="93" height="60" viewBox="0 0 93 60" fill="none" xmlns="http://www.w3.org/2000/svg">
<rect width="92.8944" height="60" rx="10" fill="#F8F8F8"/>
<g clip-path="url(#clip0_703_823)">
<path d="M27.1321 20.7231C26.4185 21.5676 25.2767 22.2336 24.135 22.1384C23.9922 20.9967 24.5512 19.7835 25.2054 19.0343C25.919 18.166 27.1678 17.5476 28.1787 17.5C28.2977 18.6893 27.8338 19.8549 27.1321 20.7231ZM28.1668 22.3644C26.5137 22.2693 25.0983 23.304 24.3134 23.304C23.5165 23.304 22.3153 22.412 21.007 22.4358C19.3062 22.4596 17.7244 23.4229 16.8562 24.9572C15.0722 28.0257 16.3923 32.569 18.1169 35.0666C18.9613 36.3035 19.9723 37.6594 21.3043 37.6118C22.565 37.5642 23.0646 36.7912 24.5869 36.7912C26.1212 36.7912 26.5612 37.6118 27.8933 37.588C29.2729 37.5642 30.1412 36.3511 30.9856 35.1142C31.949 33.7108 32.3414 32.343 32.3652 32.2716C32.3414 32.2479 29.7011 31.2369 29.6773 28.1922C29.6535 25.647 31.7587 24.4339 31.8538 24.3625C30.6645 22.6023 28.8091 22.412 28.1668 22.3644ZM37.7173 18.9153V37.4572H40.5955V31.118H44.5798C48.2192 31.118 50.7763 28.6204 50.7763 25.0048C50.7763 21.3892 48.2668 18.9153 44.6749 18.9153H37.7173ZM40.5955 21.3416H43.9138C46.4114 21.3416 47.8386 22.6736 47.8386 25.0167C47.8386 27.3597 46.4114 28.7036 43.9019 28.7036H40.5955V21.3416ZM56.0332 37.5999C57.841 37.5999 59.5179 36.6841 60.2791 35.2331H60.3386V37.4572H63.0027V28.2279C63.0027 25.5519 60.8619 23.8273 57.5674 23.8273C54.5108 23.8273 52.2511 25.5756 52.1678 27.9781H54.7606C54.9746 26.8363 56.0332 26.0871 57.4842 26.0871C59.2444 26.0871 60.2315 26.9077 60.2315 28.4182V29.441L56.6397 29.6551C53.2977 29.8573 51.4899 31.225 51.4899 33.6037C51.4899 36.0062 53.3571 37.5999 56.0332 37.5999ZM56.8062 35.3996C55.272 35.3996 54.2967 34.6622 54.2967 33.5324C54.2967 32.3668 55.2363 31.6889 57.0322 31.5818L60.2315 31.3796V32.4263C60.2315 34.1627 58.7568 35.3996 56.8062 35.3996ZM66.5589 42.5C69.3657 42.5 70.6859 41.4296 71.8395 38.1827L76.8942 24.0057H73.9685L70.5788 34.9596H70.5194L67.1297 24.0057H64.1207L68.997 37.5048L68.7354 38.3254C68.2953 39.7169 67.5817 40.2521 66.3091 40.2521C66.0831 40.2521 65.6431 40.2284 65.4647 40.2046V42.4286C65.6312 42.4762 66.3448 42.5 66.5589 42.5Z" fill="black"/>
</g>
<defs>
<clipPath id="clip0_703_823">
<rect width="60.8944" height="25" fill="white" transform="translate(16 17.5)"/>
</clipPath>
</defs>
</svg>
