<svg width="152" height="60" viewBox="0 0 152 60" fill="none" xmlns="http://www.w3.org/2000/svg">
<rect width="151.725" height="60" rx="10" fill="#F8F8F8"/>
<g clip-path="url(#clip0_703_780)">
<path d="M40.6219 33.0253C38.9524 39.7217 32.17 43.797 25.4729 42.1271C18.7785 40.4576 14.7031 33.6749 16.3734 26.9789C18.0421 20.2817 24.8245 16.206 31.5197 17.8755C38.2164 19.545 42.2914 26.3285 40.6219 33.0253Z" fill="#F7931A"/>
<path d="M34.0087 28.2205C34.2575 26.5573 32.9911 25.6631 31.2595 25.0667L31.8212 22.8136L30.4498 22.4718L29.9029 24.6655C29.5424 24.5756 29.1721 24.4909 28.8041 24.4069L29.3549 22.1987L27.9842 21.8569L27.4221 24.1092C27.1237 24.0413 26.8307 23.9741 26.5463 23.9034L26.5479 23.8964L24.6565 23.4241L24.2917 24.8889C24.2917 24.8889 25.3092 25.1221 25.2877 25.1366C25.8432 25.2752 25.9436 25.6428 25.9268 25.9342L25.287 28.501C25.3252 28.5107 25.3749 28.5248 25.4295 28.5467C25.3838 28.5353 25.335 28.5228 25.2846 28.5107L24.3878 32.1064C24.3198 32.2751 24.1475 32.5283 23.7593 32.4322C23.7729 32.4521 22.7624 32.1833 22.7624 32.1833L22.0815 33.7532L23.8663 34.1981C24.1983 34.2813 24.5237 34.3685 24.844 34.4505L24.2764 36.7294L25.6463 37.0712L26.2084 34.8165C26.5826 34.9181 26.9459 35.0118 27.3014 35.1001L26.7412 37.3442L28.1127 37.686L28.6803 35.4114C31.0189 35.854 32.7775 35.6755 33.5177 33.5603C34.1142 31.8572 33.488 30.8748 32.2576 30.2342C33.1536 30.0275 33.8286 29.4381 34.0087 28.2205ZM30.8752 32.6146C30.4513 34.3177 27.5838 33.397 26.6541 33.1661L27.4072 30.147C28.3369 30.3791 31.3181 30.8384 30.8752 32.6146ZM31.2994 28.1959C30.9127 29.7451 28.526 28.958 27.7518 28.765L28.4346 26.0268C29.2088 26.2198 31.7021 26.5799 31.2994 28.1959Z" fill="white"/>
<path d="M52.6295 25.0646C53.6432 25.0646 54.5189 25.2463 55.2549 25.6029C55.9943 25.963 56.6044 26.4482 57.0939 27.0583C57.5767 27.6716 57.9361 28.3884 58.1681 29.2099C58.3986 30.0337 58.5142 30.9192 58.5142 31.8673C58.5142 33.3235 58.2474 34.6992 57.7087 35.9961C57.1701 37.2949 56.4392 38.4214 55.5095 39.3824C54.5806 40.3421 53.4838 41.0987 52.219 41.6577C50.9561 42.2171 49.5831 42.4968 48.1089 42.4968C47.9183 42.4968 47.5831 42.4913 47.1097 42.4815C46.6362 42.4718 46.0921 42.4229 45.4828 42.3405C44.8695 42.255 44.2211 42.1284 43.5363 41.9589C42.8519 41.7925 42.2019 41.5593 41.5898 41.2632L47.0632 18.2651L51.9655 17.5054L50.0057 25.6666C50.4252 25.4775 50.8479 25.331 51.2698 25.2244C51.692 25.1193 52.1451 25.0646 52.6295 25.0646ZM48.5175 38.6078C49.2557 38.6078 49.9514 38.4261 50.6049 38.0695C51.2604 37.7125 51.826 37.2304 52.2998 36.6301C52.7737 36.027 53.1486 35.3477 53.4221 34.5887C53.6955 33.8297 53.8338 33.0379 53.8338 32.2141C53.8338 31.202 53.6646 30.4126 53.3275 29.8419C52.9904 29.2735 52.3666 28.9876 51.4608 28.9876C51.1639 28.9876 50.7815 29.0442 50.3073 29.1454C49.8315 29.2528 49.4057 29.4759 49.0241 29.8114L46.9374 38.4785C47.0632 38.5007 47.1745 38.5218 47.2694 38.5418C47.3624 38.5632 47.4651 38.5785 47.5675 38.589C47.6757 38.6011 47.7995 38.6074 47.9491 38.6074C48.0987 38.6074 48.2858 38.6078 48.5175 38.6078Z" fill="#4D4D4D"/>
<path d="M63.5979 42.0566H58.9155L62.8698 25.4174H67.5841L63.5979 42.0566ZM65.8764 23.39C65.2229 23.39 64.6303 23.1955 64.1045 22.8057C63.5744 22.4182 63.3119 21.8217 63.3119 21.0178C63.3119 20.5756 63.4018 20.1608 63.5799 19.7694C63.7608 19.3788 63.9971 19.0425 64.2932 18.7565C64.5889 18.4729 64.9315 18.2464 65.3205 18.0757C65.7119 17.9077 66.1283 17.8237 66.5721 17.8237C67.2252 17.8237 67.8146 18.0183 68.3423 18.4081C68.8681 18.7999 69.1326 19.3964 69.1326 20.196C69.1326 20.6397 69.0431 21.0561 68.8634 21.4467C68.6849 21.8373 68.4486 22.1737 68.1525 22.4596C67.8591 22.7436 67.5134 22.9693 67.1252 23.1385C66.7334 23.3092 66.3185 23.39 65.8764 23.39Z" fill="#4D4D4D"/>
<path d="M71.6876 21.2715L76.5918 20.5117L75.3875 25.4163H80.6398L79.6913 29.2749H74.4707L73.0801 35.0951C72.952 35.5802 72.8793 36.0333 72.859 36.4544C72.836 36.8775 72.8895 37.2408 73.0161 37.5466C73.1418 37.8533 73.368 38.0896 73.6961 38.2568C74.0227 38.4267 74.4903 38.5122 75.1035 38.5122C75.6086 38.5122 76.1008 38.4642 76.5765 38.3689C77.0496 38.2751 77.5289 38.1447 78.014 37.974L78.3632 41.5817C77.7304 41.8137 77.0453 42.0133 76.307 42.1813C75.5676 42.3516 74.6922 42.4336 73.6805 42.4336C72.2258 42.4336 71.0981 42.2176 70.2946 41.7876C69.4923 41.3544 68.9251 40.7626 68.5857 40.0134C68.2509 39.2669 68.1013 38.4064 68.1431 37.4368C68.1864 36.465 68.3329 35.4435 68.5857 34.3678L71.6876 21.2715Z" fill="#4D4D4D"/>
<path d="M80.4336 35.4118C80.4336 33.9787 80.6656 32.6271 81.1293 31.3619C81.5922 30.0955 82.259 28.9881 83.1242 28.0377C83.9863 27.0921 85.0366 26.3428 86.273 25.7929C87.5034 25.246 88.8811 24.9702 90.3995 24.9702C91.3498 24.9702 92.1986 25.0601 92.9455 25.2401C93.6955 25.4218 94.374 25.6565 94.9877 25.9511L93.3728 29.6229C92.951 29.4518 92.5131 29.301 92.0604 29.1643C91.6073 29.0248 91.0541 28.9577 90.3998 28.9577C88.837 28.9577 87.6015 29.4963 86.6819 30.5701C85.7659 31.6447 85.3046 33.0912 85.3046 34.9056C85.3046 35.981 85.5366 36.8505 86.0023 37.5157C86.4655 38.1809 87.3214 38.5118 88.5639 38.5118C89.1772 38.5118 89.769 38.4477 90.3358 38.3227C90.9069 38.1962 91.4112 38.0368 91.8553 37.8485L92.2049 41.6125C91.6127 41.8422 90.9596 42.0496 90.2432 42.2313C89.5253 42.4067 88.6706 42.4977 87.6796 42.4977C86.3714 42.4977 85.264 42.3063 84.3581 41.9293C83.4519 41.5465 82.7031 41.0383 82.1133 40.3946C81.5203 39.7493 81.0945 38.9958 80.8312 38.131C80.568 37.2669 80.4336 36.3591 80.4336 35.4118Z" fill="#4D4D4D"/>
<path d="M101.234 42.4977C100.117 42.4977 99.1461 42.3274 98.3227 41.9903C97.5016 41.6532 96.8215 41.1801 96.2837 40.5669C95.745 39.9567 95.3419 39.2337 95.0657 38.4005C94.7895 37.5677 94.6567 36.6454 94.6567 35.6349C94.6567 34.3673 94.8603 33.1002 95.2716 31.8365C95.6809 30.5701 96.2883 29.4323 97.0922 28.4209C97.8899 27.4081 98.8739 26.58 100.032 25.9343C101.19 25.2929 102.521 24.9702 104.016 24.9702C105.114 24.9702 106.079 25.1409 106.914 25.478C107.745 25.8143 108.429 26.2913 108.97 26.9014C109.505 27.5147 109.912 28.2346 110.185 29.069C110.461 29.9002 110.597 30.8248 110.597 31.8361C110.597 33.0998 110.396 34.3669 109.998 35.6345C109.599 36.8958 109.007 38.0364 108.226 39.0501C107.446 40.0614 106.471 40.8891 105.3 41.5321C104.13 42.175 102.774 42.4977 101.234 42.4977ZM103.575 28.958C102.88 28.958 102.267 29.1596 101.741 29.5576C101.214 29.9604 100.771 30.4666 100.414 31.0772C100.053 31.6904 99.7856 32.3592 99.6047 33.0861C99.4254 33.8146 99.3375 34.5033 99.3375 35.1576C99.3375 36.2134 99.5078 37.0357 99.8426 37.6274C100.182 38.2161 100.792 38.5122 101.678 38.5122C102.375 38.5122 102.985 38.3122 103.514 37.9099C104.038 37.5103 104.481 37.0036 104.841 36.3919C105.2 35.7818 105.469 35.1111 105.65 34.383C105.827 33.6568 105.918 32.9642 105.918 32.3111C105.918 31.258 105.748 30.4338 105.41 29.8428C105.073 29.2541 104.46 28.958 103.575 28.958Z" fill="#4D4D4D"/>
<path d="M115.699 42.0566H111.013L114.967 25.4174H119.684L115.699 42.0566ZM117.974 23.39C117.321 23.39 116.729 23.1955 116.204 22.8057C115.676 22.4182 115.411 21.8217 115.411 21.0178C115.411 20.5756 115.502 20.1608 115.681 19.7694C115.859 19.3788 116.097 19.0425 116.393 18.7565C116.688 18.4729 117.033 18.2464 117.422 18.0757C117.811 17.9077 118.227 17.8237 118.669 17.8237C119.324 17.8237 119.915 18.0183 120.442 18.4081C120.969 18.7999 121.235 19.3964 121.235 20.196C121.235 20.6397 121.14 21.0561 120.963 21.4467C120.786 21.8373 120.548 22.1737 120.254 22.4596C119.957 22.7436 119.615 22.9693 119.226 23.1385C118.834 23.3092 118.418 23.39 117.974 23.39Z" fill="#4D4D4D"/>
<path d="M123.058 26.1739C123.414 26.07 123.81 25.945 124.242 25.8091C124.675 25.6731 125.159 25.5466 125.7 25.4325C126.235 25.3149 126.838 25.2196 127.502 25.1458C128.165 25.0704 128.922 25.0337 129.762 25.0337C132.231 25.0337 133.934 25.7528 134.873 27.1868C135.813 28.6208 135.975 30.5832 135.366 33.0707L133.212 42.0549H128.499L130.586 33.2597C130.713 32.7105 130.813 32.1797 130.887 31.6609C130.962 31.1469 130.958 30.6938 130.87 30.3016C130.787 29.9141 130.591 29.5969 130.287 29.3512C129.978 29.1094 129.511 28.9879 128.878 28.9879C128.267 28.9879 127.646 29.0536 127.012 29.1801L123.943 42.0545H119.228L123.058 26.1739Z" fill="#4D4D4D"/>
</g>
<defs>
<clipPath id="clip0_703_780">
<rect width="119.725" height="25" fill="white" transform="translate(16 17.5)"/>
</clipPath>
</defs>
</svg>
