<svg width="126" height="60" viewBox="0 0 126 60" fill="none" xmlns="http://www.w3.org/2000/svg">
<rect width="125.939" height="60" rx="10" fill="#F8F8F8"/>
<g clip-path="url(#clip0_703_793)">
<path d="M51.0085 22.6128H45.8274C45.4728 22.6128 45.1713 22.8704 45.116 23.2204L43.0206 36.506C42.9789 36.7681 43.1819 37.0045 43.4478 37.0045H45.9213C46.2759 37.0045 46.5774 36.7469 46.6327 36.3961L47.1978 32.8128C47.2524 32.462 47.5547 32.2045 47.9085 32.2045H49.5486C52.9615 32.2045 54.9312 30.5529 55.4456 27.2802C55.6774 25.8484 55.4554 24.7234 54.785 23.9355C54.0486 23.0704 52.7425 22.6128 51.0085 22.6128ZM51.6062 27.4651C51.3228 29.3242 49.9024 29.3242 48.5289 29.3242H47.7471L48.2956 25.8522C48.3282 25.6423 48.51 25.4878 48.7221 25.4878H49.0804C50.016 25.4878 50.8986 25.4878 51.3547 26.0211C51.6266 26.3393 51.71 26.812 51.6062 27.4651Z" fill="#253B80"/>
<path d="M66.4956 27.4052H64.0145C63.8031 27.4052 63.6206 27.5598 63.588 27.7696L63.4781 28.4635L63.3047 28.212C62.7675 27.4325 61.5698 27.1719 60.3744 27.1719C57.6327 27.1719 55.291 29.2484 54.835 32.1613C54.5978 33.6143 54.935 35.0037 55.7592 35.9726C56.5153 36.8635 57.5971 37.2348 58.8842 37.2348C61.0933 37.2348 62.3183 35.8143 62.3183 35.8143L62.2077 36.5037C62.166 36.7673 62.3691 37.0037 62.6334 37.0037H64.8683C65.2236 37.0037 65.5236 36.7461 65.5797 36.3954L66.9206 27.9037C66.963 27.6423 66.7607 27.4052 66.4956 27.4052ZM63.0372 32.234C62.7978 33.6514 61.6728 34.6029 60.238 34.6029C59.5175 34.6029 58.9418 34.3719 58.5721 33.934C58.2054 33.4991 58.066 32.8802 58.1827 32.1908C58.4062 30.7855 59.5501 29.8029 60.963 29.8029C61.6675 29.8029 62.2403 30.037 62.6175 30.4787C62.9956 30.9249 63.1456 31.5476 63.0372 32.234Z" fill="#253B80"/>
<path d="M79.709 27.4053H77.2158C76.9779 27.4053 76.7544 27.5235 76.6196 27.7212L73.1809 32.7863L71.7234 27.9189C71.6317 27.6144 71.3506 27.4053 71.0325 27.4053H68.5825C68.2847 27.4053 68.0779 27.6962 68.1726 27.9765L70.9188 36.0356L68.337 39.6803C68.134 39.9674 68.3385 40.3621 68.6893 40.3621H71.1794C71.4158 40.3621 71.637 40.2469 71.7711 40.053L80.0635 28.0833C80.262 27.7969 80.0582 27.4053 79.709 27.4053Z" fill="#253B80"/>
<path d="M87.9635 22.6128H82.7817C82.4279 22.6128 82.1264 22.8704 82.0711 23.2204L79.9757 36.506C79.934 36.7681 80.137 37.0045 80.4014 37.0045H83.0605C83.3075 37.0045 83.5188 36.8242 83.5575 36.5787L84.1522 32.8128C84.2067 32.462 84.509 32.2045 84.8628 32.2045H86.5022C89.9158 32.2045 91.8847 30.5529 92.3999 27.2802C92.6325 25.8484 92.409 24.7234 91.7385 23.9355C91.0029 23.0704 89.6976 22.6128 87.9635 22.6128ZM88.5613 27.4651C88.2787 29.3242 86.8582 29.3242 85.484 29.3242H84.7029L85.2522 25.8522C85.2847 25.6423 85.465 25.4878 85.6779 25.4878H86.0363C86.9711 25.4878 87.8544 25.4878 88.3105 26.0211C88.5825 26.3393 88.665 26.812 88.5613 27.4651Z" fill="#179BD7"/>
<path d="M103.45 27.4052H100.97C100.757 27.4052 100.576 27.5598 100.545 27.7696L100.435 28.4635L100.26 28.212C99.7233 27.4325 98.5264 27.1719 97.3309 27.1719C94.5892 27.1719 92.2483 29.2484 91.7923 32.1613C91.5559 33.6143 91.8915 35.0037 92.7158 35.9726C93.4733 36.8635 94.5536 37.2348 95.8408 37.2348C98.0498 37.2348 99.2748 35.8143 99.2748 35.8143L99.1642 36.5037C99.1226 36.7673 99.3256 37.0037 99.5915 37.0037H101.826C102.179 37.0037 102.481 36.7461 102.536 36.3954L103.878 27.9037C103.919 27.6423 103.716 27.4052 103.45 27.4052ZM99.9915 32.234C99.7536 33.6514 98.6271 34.6029 97.1923 34.6029C96.4733 34.6029 95.8961 34.3719 95.5264 33.934C95.1597 33.4991 95.0218 32.8802 95.137 32.1908C95.362 30.7855 96.5044 29.8029 97.9173 29.8029C98.6218 29.8029 99.1945 30.037 99.5718 30.4787C99.9514 30.9249 100.101 31.5476 99.9915 32.234Z" fill="#179BD7"/>
<path d="M106.375 22.9775L104.249 36.5062C104.207 36.7684 104.41 37.0047 104.674 37.0047H106.812C107.168 37.0047 107.469 36.7472 107.524 36.3964L109.621 23.1115C109.662 22.8494 109.459 22.6123 109.195 22.6123H106.801C106.59 22.6131 106.408 22.7676 106.375 22.9775Z" fill="#179BD7"/>
<path d="M21.5045 39.5865L21.9007 37.0698L21.0181 37.0494H16.8037L19.7325 18.4789C19.7416 18.4228 19.7711 18.3706 19.8143 18.3335C19.8575 18.2963 19.9128 18.2759 19.9704 18.2759H27.0764C29.4355 18.2759 31.0636 18.7668 31.9136 19.7357C32.312 20.1903 32.5658 20.6653 32.6886 21.188C32.8173 21.7365 32.8196 22.3918 32.6939 23.191L32.6848 23.2494V23.7615L33.0833 23.9872C33.4189 24.1653 33.6855 24.3691 33.8901 24.6024C34.231 24.991 34.4514 25.485 34.5446 26.0706C34.6408 26.6728 34.609 27.3895 34.4514 28.2009C34.2696 29.1342 33.9757 29.9471 33.5787 30.6122C33.2136 31.2251 32.7484 31.7335 32.1961 32.1274C31.6689 32.5016 31.0423 32.7857 30.334 32.9675C29.6476 33.1463 28.8651 33.2365 28.0067 33.2365H27.4537C27.0583 33.2365 26.6742 33.3789 26.3726 33.6342C26.0704 33.8948 25.8704 34.2509 25.809 34.6403L25.7673 34.8668L25.0673 39.3024L25.0355 39.4653C25.0272 39.5168 25.0128 39.5425 24.9916 39.56C24.9726 39.5759 24.9454 39.5865 24.9189 39.5865H21.5045Z" fill="#253B80"/>
<path d="M33.4605 23.3081C33.4392 23.4437 33.415 23.5823 33.3877 23.7248C32.4506 28.5361 29.2446 30.1983 25.1499 30.1983H23.065C22.5643 30.1983 22.1423 30.5619 22.0643 31.0558L20.9968 37.8255L20.6946 39.7445C20.6438 40.0687 20.8938 40.3611 21.2211 40.3611H24.9188C25.3567 40.3611 25.7286 40.043 25.7976 39.6111L25.8339 39.4233L26.5302 35.0051L26.5749 34.7626C26.643 34.3293 27.0158 34.0111 27.4536 34.0111H28.0067C31.5892 34.0111 34.3938 32.5566 35.2135 28.3475C35.5559 26.5892 35.3786 25.121 34.4726 24.0884C34.1983 23.777 33.8582 23.5187 33.4605 23.3081Z" fill="#179BD7"/>
<path d="M32.4804 22.9174C32.3372 22.8758 32.1895 22.8379 32.0379 22.8038C31.8857 22.7704 31.7296 22.7409 31.569 22.7151C31.0069 22.6242 30.391 22.5811 29.7311 22.5811H24.1614C24.0243 22.5811 23.894 22.6121 23.7773 22.6682C23.5205 22.7917 23.3296 23.0348 23.2834 23.3326L22.0985 30.8371L22.0645 31.0561C22.1425 30.5621 22.5645 30.1985 23.0652 30.1985H25.1501C29.2448 30.1985 32.4508 28.5356 33.3879 23.725C33.416 23.5826 33.4395 23.4439 33.4607 23.3083C33.2235 23.1826 32.9667 23.075 32.6902 22.9833C32.622 22.9606 32.5516 22.9386 32.4804 22.9174Z" fill="#222D65"/>
<path d="M23.2833 23.3326C23.3295 23.0348 23.5204 22.7917 23.7773 22.6689C23.8947 22.6129 24.0242 22.5818 24.1614 22.5818H29.7311C30.3909 22.5818 31.0068 22.625 31.5689 22.7159C31.7295 22.7417 31.8856 22.7712 32.0379 22.8045C32.1894 22.8386 32.3371 22.8765 32.4803 22.9182C32.5515 22.9394 32.622 22.9614 32.6909 22.9833C32.9674 23.075 33.2242 23.1833 33.4614 23.3083C33.7401 21.5303 33.4591 20.3197 32.4977 19.2235C31.4379 18.0167 29.525 17.5 27.0773 17.5H19.9712C19.4712 17.5 19.0447 17.8636 18.9674 18.3583L16.0076 37.1197C15.9492 37.4909 16.2356 37.8258 16.6098 37.8258H20.997L22.0985 30.8371L23.2833 23.3326Z" fill="#253B80"/>
</g>
<defs>
<clipPath id="clip0_703_793">
<rect width="93.9394" height="25" fill="white" transform="translate(16 17.5)"/>
</clipPath>
</defs>
</svg>
