<svg width="132" height="60" viewBox="0 0 132 60" fill="none" xmlns="http://www.w3.org/2000/svg">
<rect width="131.397" height="60" rx="10" fill="#F8F8F8"/>
<g clip-path="url(#clip0_703_761)">
<path d="M48.0954 27.2762C48.0954 25.4931 46.3615 23.5994 43.361 23.5994C39.9916 23.5994 36.2902 26.0711 35.7245 31.0022C35.1466 35.9825 38.2455 38.196 41.3689 38.196C44.4924 38.196 46.1279 36.9786 47.8003 35.3554C46.3615 33.5477 44.5047 34.3839 44.1481 34.5684C43.7546 34.7651 43.2504 35.0357 42.2174 35.0357C41.0123 35.0357 39.7826 34.4946 39.7826 32.2442C47.5052 31.4818 48.0954 29.0593 48.0954 27.2762ZM44.271 27.5713C44.2218 28.1247 44.0005 29.0716 40.09 29.6003C40.9139 26.6736 42.4879 26.4523 43.2135 26.4523C43.8898 26.4523 44.3202 26.9811 44.271 27.5713ZM31.1869 28.0509C31.1869 28.0509 29.5268 33.2649 29.3915 33.6953C29.3424 33.2526 28.1249 23.8945 28.1249 23.8945C25.2966 23.8945 23.7841 25.9112 22.9848 28.0386C22.9848 28.0386 20.968 33.2649 20.7959 33.7076C20.7836 33.3018 20.4884 28.1001 20.4884 28.1001C20.3163 25.4931 17.9306 23.9068 16 23.9068L18.3364 38.0853C21.3 38.073 22.8987 36.0686 23.7349 33.9412C23.7349 33.9412 25.518 29.3298 25.5917 29.1208C25.604 29.3175 26.8706 38.0853 26.8706 38.0853C29.8465 38.0853 31.4452 36.2039 32.306 34.1503L36.4747 23.9068C33.5357 23.9068 31.9862 25.9112 31.1869 28.0509ZM59.0152 23.5748C57.183 23.5748 55.7811 24.5708 54.6006 26.0342V26.0219L55.6581 17.5C53.2233 17.5 51.2435 19.6151 50.8623 22.7632L49.0177 37.9747C50.4196 37.9747 51.9075 37.5689 52.7068 36.5359C53.4201 37.4582 54.4899 38.196 56.0762 38.196C60.1835 38.196 62.9995 33.4247 62.9995 28.9486C62.9749 24.866 60.9951 23.5748 59.0152 23.5748ZM58.634 30.8915C58.2036 33.3878 56.8141 35.0849 55.4737 35.0849C54.121 35.0849 53.543 34.4823 53.543 34.4823C53.8013 32.2934 53.9611 30.953 54.453 29.7971C54.9449 28.6412 56.1131 26.7966 57.3305 26.7966C58.5234 26.7966 59.0644 28.3829 58.634 30.8915ZM73.2553 23.9068H70.3901L70.4024 23.7592C70.5991 21.8901 71.0418 20.9063 72.5052 20.7464C73.5012 20.6481 73.9439 20.1316 74.0546 19.5659C74.1407 19.1232 74.4112 17.5861 74.4112 17.5861C68.6562 17.5492 66.8485 20.0332 66.3812 23.8207L66.3689 23.9068H66.3074C65.3729 23.9068 64.3399 24.9643 64.1677 26.3047L64.1063 26.7966H66.0246L64.4137 40.1021L63.9218 42.4877C63.9833 42.4877 64.0571 42.5 64.1185 42.5C66.8116 42.4016 68.5332 40.2742 68.9144 37.1877L70.1687 26.7966H71.0664C71.9518 26.7966 72.9848 25.9112 73.1692 24.4356L73.2553 23.9068ZM88.1594 23.6608C84.8515 23.6608 81.728 26.0957 80.7688 29.9201C79.8096 33.7445 81.2607 38.2698 86.1303 38.2698C90.9877 38.2698 93.7914 33.56 93.7914 29.6372C93.7914 25.7391 91.1476 23.6608 88.1594 23.6608ZM89.4998 30.7686C89.3276 32.5025 88.5652 35.134 86.4747 35.134C84.3719 35.134 84.667 32.0598 84.876 30.5964C85.0974 29.0347 85.9705 26.8089 87.8519 26.8089C89.5366 26.8089 89.6965 28.8133 89.4998 30.7686ZM110.134 28.0509C110.134 28.0509 108.474 33.2649 108.339 33.6953C108.29 33.2526 107.072 23.8945 107.072 23.8945C104.244 23.8945 102.731 25.9112 101.932 28.0386C101.932 28.0386 99.9154 33.2649 99.7432 33.7076C99.7309 33.3018 99.4358 28.1001 99.4358 28.1001C99.2637 25.4931 96.878 23.9068 94.9474 23.9068L97.2715 38.0853C100.235 38.073 101.834 36.0686 102.67 33.9412C102.67 33.9412 104.453 29.3298 104.515 29.1208C104.539 29.3175 105.793 38.0853 105.793 38.0853C108.769 38.0853 110.368 36.2039 111.229 34.1503L115.397 23.9068C112.471 23.9068 110.921 25.9112 110.134 28.0509ZM75.9607 17.5861L73.5504 37.0278L73.0585 39.4257C73.12 39.4257 73.1938 39.438 73.2553 39.438C75.85 39.4011 77.6945 37.1262 78.0389 34.2609L79.4284 23.1075C79.8465 19.7012 77.8175 17.5861 75.9607 17.5861Z" fill="#3A60F8"/>
</g>
<defs>
<clipPath id="clip0_703_761">
<rect width="99.3974" height="25" fill="white" transform="translate(16 17.5)"/>
</clipPath>
</defs>
</svg>
