<svg width="98" height="60" viewBox="0 0 98 60" fill="none" xmlns="http://www.w3.org/2000/svg">
<rect width="97.5022" height="60" rx="10" fill="#F8F8F8"/>
<g clip-path="url(#clip0_703_777)">
<path d="M55.3056 28.0467H53.6729C53.6394 27.913 53.6144 27.7581 53.5977 27.5821C53.5645 27.2397 53.5645 26.8949 53.5977 26.5524C53.6144 26.3769 53.6394 26.222 53.6729 26.0876H57.7419V38.9723C57.5382 39.0077 57.3328 39.0327 57.1266 39.0472C56.9217 39.0629 56.7163 39.0712 56.5109 39.0721C56.314 39.0709 56.1173 39.0626 55.9211 39.0472C55.7149 39.0326 55.5096 39.0075 55.306 38.9719V28.0461V28.0464L55.3056 28.0467ZM69.4707 31.2869C69.4707 30.8179 69.4079 30.3702 69.2826 29.9428C69.1569 29.5161 68.9721 29.1437 68.73 28.8254C68.4868 28.5075 68.1772 28.2519 67.8004 28.0595C67.4238 27.8669 66.9758 27.7705 66.4567 27.7705C65.4354 27.7705 64.6525 28.0807 64.1085 28.7C63.5643 29.3194 63.2338 30.1816 63.1164 31.2869H69.4709H69.4707ZM63.0914 33.1454C63.1249 34.5518 63.4891 35.5818 64.1839 36.2344C64.8785 36.8874 65.9043 37.2144 67.2606 37.2144C68.449 37.2144 69.5793 37.0047 70.651 36.5862C70.7846 36.8373 70.8933 37.143 70.9772 37.503C71.0594 37.8535 71.1098 38.2107 71.1278 38.5702C70.5756 38.8053 69.9682 38.9803 69.3072 39.0978C68.6454 39.2147 67.913 39.2736 67.1098 39.2736C65.9373 39.2736 64.9325 39.1099 64.0958 38.7837C63.2584 38.4568 62.5677 37.9963 62.0235 37.4022C61.4795 36.808 61.0816 36.1046 60.8305 35.2924C60.5795 34.4806 60.4536 33.5888 60.4536 32.6177C60.4536 31.6633 60.5749 30.7716 60.8178 29.9426C61.0601 29.1142 61.4335 28.3941 61.9352 27.783C62.4378 27.1716 63.0697 26.6862 63.8317 26.3262C64.5932 25.9662 65.4931 25.7859 66.5317 25.7859C67.419 25.7859 68.1975 25.9368 68.8675 26.2381C69.5369 26.5395 70.098 26.954 70.5502 27.4814C71.0022 28.0089 71.3454 28.6368 71.5799 29.3648C71.8141 30.0935 71.9318 30.8845 71.9318 31.7386C71.9318 31.9731 71.9229 32.2199 71.9062 32.4793C71.8925 32.7014 71.8758 32.9232 71.8562 33.1448H63.0908L63.0911 33.1452L63.0914 33.1454ZM74.6708 26.0876C74.8456 26.0559 75.0216 26.0308 75.1983 26.0124C75.3653 25.9961 75.5415 25.9875 75.7257 25.9875C75.9099 25.9875 76.0938 25.9961 76.2783 26.0124C76.4623 26.0295 76.6299 26.0546 76.7807 26.0876C76.8304 26.3389 76.8807 26.6699 76.9308 27.0797C76.981 27.49 77.0065 27.8372 77.0065 28.122C77.358 27.5529 77.8227 27.0586 78.4001 26.6399C78.9779 26.2216 79.7187 26.012 80.6227 26.012C80.7566 26.012 80.8947 26.0165 81.0371 26.0249C81.159 26.0314 81.2808 26.0437 81.4013 26.0622C81.4346 26.2131 81.4603 26.3724 81.4768 26.5396C81.4933 26.7069 81.5017 26.8828 81.5017 27.0669C81.5017 27.268 81.4892 27.4775 81.4642 27.6947C81.44 27.9046 81.4108 28.1139 81.3764 28.3224C81.2407 28.289 81.1015 28.2722 80.9618 28.2723H80.6225C80.1705 28.2723 79.7393 28.3351 79.3291 28.4605C78.9185 28.5863 78.5504 28.8082 78.2239 29.126C77.8977 29.4444 77.6379 29.8798 77.4458 30.4324C77.2528 30.985 77.1568 31.6966 77.1568 32.5671V38.9719C76.9531 39.0073 76.7476 39.0326 76.5413 39.0471C76.3156 39.0639 76.1103 39.072 75.9262 39.072C75.7209 39.0712 75.5156 39.0629 75.3108 39.0471C75.0962 39.0315 74.8825 39.0065 74.6702 38.972V26.0878L74.6708 26.0876ZM57.0437 19.2078C57.0437 19.5084 56.9894 19.8066 56.8834 20.0879C56.602 20.1939 56.3038 20.2482 56.0031 20.2482H55.9994C55.6987 20.2483 55.4005 20.194 55.1191 20.088C55.0129 19.8066 54.9586 19.5084 54.9586 19.2077V19.2037C54.9586 18.8939 55.0155 18.5972 55.1184 18.3234C55.3999 18.2173 55.6982 18.163 55.999 18.1632H56.0024C56.3124 18.1632 56.609 18.22 56.8828 18.3234C56.9889 18.6048 57.0432 18.903 57.043 19.2037V19.2077H57.0434L57.0437 19.2078ZM60.1126 18.5109H57.679L59.3997 16.7901C59.1291 16.4101 58.7969 16.078 58.4169 15.8076L56.696 17.5283V15.0947C56.4672 15.0562 56.2355 15.0368 56.0035 15.0366H55.999C55.763 15.0366 55.5317 15.0568 55.3064 15.0947V17.5283L53.5852 15.8075C53.3956 15.9424 53.2177 16.0929 53.0533 16.2576L53.0525 16.2584C52.8881 16.4229 52.7377 16.6008 52.6027 16.7902L54.324 18.5109H51.89C51.89 18.5109 51.8321 18.9681 51.8321 19.2044V19.2073C51.8321 19.4436 51.8521 19.6752 51.8901 19.9007H54.3241L52.6026 21.6212C52.8734 22.0011 53.2056 22.3332 53.5855 22.604L55.3065 20.8833V23.3171C55.5316 23.3549 55.7624 23.3748 55.9983 23.375H56.0041C56.2359 23.3748 56.4673 23.3555 56.6959 23.3171V20.8833L58.417 22.6044C58.6066 22.4693 58.7846 22.3187 58.9493 22.1542H58.9496C59.114 21.9895 59.2644 21.8115 59.3993 21.6219L57.6786 19.9008H60.1127C60.1504 19.6755 60.1703 19.4447 60.1703 19.2088V19.2028C60.1703 18.9709 60.151 18.7397 60.1127 18.5111V18.5109H60.1126ZM16 38.6208L22.7813 28.0718H16.8036C16.7535 27.7705 16.7285 27.4359 16.7285 27.0674C16.7285 26.7159 16.7539 26.3891 16.8041 26.0875H26.4735L26.5993 26.4146L19.7678 36.9882H26.1721C26.2223 37.3232 26.2476 37.6662 26.2476 38.0177C26.2476 38.353 26.2224 38.671 26.1722 38.9723H16.1258L16 38.6204V38.6208ZM35.565 32.9191C35.3138 32.886 34.9956 32.8528 34.6106 32.8189C34.2255 32.7857 33.899 32.7687 33.6315 32.7687C32.5931 32.7687 31.802 32.9613 31.2582 33.3464C30.7136 33.7319 30.4421 34.3176 30.4421 35.1045C30.4421 35.6068 30.5338 36.0003 30.7181 36.2849C30.902 36.5699 31.1324 36.7871 31.4087 36.9379C31.6852 37.0886 31.9904 37.1808 32.3251 37.2144C32.6598 37.2478 32.9782 37.2644 33.2795 37.2644C33.6646 37.2644 34.0622 37.2434 34.4725 37.2015C34.8826 37.16 35.2468 37.097 35.5651 37.0133V32.9191H35.565ZM35.565 30.4832C35.565 29.4949 35.3138 28.8085 34.8117 28.4233C34.3092 28.0381 33.5809 27.8456 32.6266 27.8456C32.04 27.8456 31.4921 27.8919 30.9815 27.9839C30.4763 28.0746 29.9771 28.1961 29.4868 28.3477C29.1684 27.7951 29.0099 27.1342 29.0099 26.3635C29.5785 26.1796 30.2062 26.0373 30.8931 25.9368C31.5796 25.8362 32.2409 25.7859 32.8774 25.7859C34.5517 25.7859 35.8241 26.1671 36.6949 26.9289C37.5653 27.6914 38.001 28.9093 38.001 30.5834V38.6457C37.4146 38.7796 36.7033 38.9177 35.8662 39.0601C35.0197 39.203 34.1628 39.2744 33.3044 39.2736C32.484 39.2736 31.7428 39.1985 31.0817 39.0478C30.4202 38.8967 29.8592 38.6545 29.3989 38.3191C28.938 37.9845 28.5827 37.5574 28.3312 37.0385C28.0802 36.5194 27.9545 35.8916 27.9545 35.1547C27.9545 34.435 28.101 33.8027 28.3941 33.2583C28.682 32.7204 29.0904 32.2562 29.5872 31.9021C30.0895 31.5426 30.6671 31.2743 31.3202 31.0988C31.9734 30.9229 32.6596 30.8348 33.3796 30.8348C33.9154 30.8348 34.3549 30.8477 34.6983 30.8728C35.0412 30.8977 35.3302 30.9271 35.5647 30.9606V30.4833L35.565 30.4832ZM43.1999 36.8621C43.517 36.9792 43.8453 37.0634 44.1796 37.1133C44.5144 37.1638 44.9493 37.1888 45.4857 37.1888C46.0883 37.1888 46.6406 37.0928 47.1429 36.9002C47.6454 36.708 48.0764 36.4105 48.4364 36.0085C48.7964 35.6068 49.081 35.1006 49.2903 34.4888C49.4995 33.8781 49.6045 33.1541 49.6045 32.3165C49.6045 30.9771 49.3571 29.9139 48.8635 29.1268C48.3692 28.34 47.5613 27.9464 46.4399 27.9464C46.0214 27.9464 45.6192 28.0216 45.2347 28.1726C44.849 28.3232 44.506 28.5493 44.2046 28.8506C43.9033 29.1519 43.6605 29.5332 43.4765 29.9935C43.2917 30.4544 43.2 31.0023 43.2 31.6387V36.8625V36.8622L43.1999 36.8621ZM40.7134 26.0874C40.8838 26.0538 41.0554 26.0288 41.2283 26.0122C41.4079 25.9956 41.5881 25.9872 41.7684 25.9873C41.9353 25.9873 42.111 25.9959 42.2956 26.0122C42.4795 26.0292 42.6553 26.0545 42.823 26.0875C42.8395 26.1216 42.8607 26.2257 42.8859 26.4016C42.9108 26.5776 42.9359 26.7658 42.9612 26.9665C42.9864 27.1676 43.0114 27.3606 43.0365 27.5443C43.0617 27.7287 43.0743 27.846 43.0743 27.8961C43.2413 27.6285 43.4424 27.3687 43.6769 27.1176C43.9114 26.8663 44.1921 26.6403 44.5186 26.4396C44.8451 26.2385 45.2132 26.0796 45.6236 25.9623C46.0337 25.8451 46.49 25.7861 46.9924 25.7861C47.7456 25.7861 48.4448 25.9118 49.0897 26.1631C49.734 26.4146 50.2862 26.8033 50.7469 27.3309C51.2072 27.8584 51.567 28.5282 51.8268 29.3401C52.0862 30.1528 52.2159 31.1112 52.2159 32.2161C52.2159 34.4262 51.6172 36.1554 50.4198 37.4026C49.2224 38.6502 47.5276 39.2736 45.3342 39.2736C44.9657 39.2736 44.5892 39.2485 44.2041 39.1983C43.8186 39.1478 43.4841 39.0808 43.1993 38.9974V44.8997C42.9871 44.9342 42.7735 44.9594 42.5592 44.975C42.3329 44.9914 42.1276 44.9999 41.9434 44.9999C41.7382 44.9991 41.533 44.9908 41.3283 44.975C41.122 44.9604 40.9167 44.9353 40.7131 44.8997V26.0875L40.7134 26.0874Z" fill="#FF4A00"/>
</g>
<defs>
<clipPath id="clip0_703_777">
<rect width="65.5022" height="30" fill="white" transform="translate(16 15)"/>
</clipPath>
</defs>
</svg>
