<svg width="95" height="60" viewBox="0 0 95 60" fill="none" xmlns="http://www.w3.org/2000/svg">
<rect width="94.9541" height="60" rx="10" fill="#F8F8F8"/>
<g clip-path="url(#clip0_703_814)">
<path d="M45.7755 29.7135V37.0418H43.4507V18.9441H49.6166C50.3526 18.9287 51.0843 19.0592 51.7696 19.3282C52.4549 19.5971 53.0801 19.999 53.6092 20.5108C54.1437 20.9916 54.569 21.5811 54.8567 22.2399C55.1444 22.8987 55.2877 23.6114 55.2771 24.3302C55.2924 25.0528 55.1512 25.7702 54.8634 26.4332C54.5755 27.0962 54.1477 27.6891 53.6092 28.1713C52.531 29.1994 51.2002 29.713 49.6166 29.712H45.7755V29.7135ZM45.7755 21.1722V27.4897H49.6743C50.1018 27.5024 50.5271 27.4257 50.9232 27.2646C51.3193 27.1034 51.6774 26.8614 51.9746 26.554C52.2703 26.2665 52.5053 25.9227 52.6658 25.5429C52.8263 25.163 52.9089 24.7548 52.9089 24.3425C52.9089 23.9301 52.8263 23.522 52.6658 23.1421C52.5053 22.7623 52.2703 22.4184 51.9746 22.131C51.6811 21.8171 51.3243 21.5691 50.9277 21.4036C50.5311 21.238 50.1039 21.1587 49.6743 21.1707H45.7755V21.1722Z" fill="#5F6368"/>
<path d="M60.634 24.2549C62.3524 24.2549 63.7088 24.7141 64.7032 25.6325C65.6976 26.5508 66.1944 27.81 66.1934 29.41V37.0415H63.9697V35.3232H63.8686C62.9059 36.7383 61.6256 37.4458 60.0275 37.4458C58.6634 37.4458 57.5222 37.0415 56.6038 36.2329C56.1631 35.8617 55.8107 35.3969 55.5724 34.8723C55.3341 34.3477 55.2158 33.7766 55.2262 33.2005C55.2262 31.9192 55.7104 30.9002 56.6789 30.1435C57.6473 29.3869 58.9402 29.0076 60.5575 29.0056C61.9379 29.0056 63.0749 29.2583 63.9682 29.7637V29.2324C63.9708 28.8396 63.886 28.4512 63.7199 28.0953C63.5539 27.7394 63.3106 27.4249 63.0079 27.1747C62.3932 26.62 61.5919 26.3173 60.764 26.327C59.4653 26.327 58.4377 26.8748 57.681 27.9703L55.6334 26.6808C56.7597 25.0635 58.4266 24.2549 60.634 24.2549ZM57.6261 33.251C57.6246 33.5469 57.6938 33.8389 57.8279 34.1026C57.962 34.3663 58.1572 34.5942 58.3972 34.7672C58.9114 35.1717 59.5496 35.3859 60.2037 35.3737C61.1847 35.3721 62.1251 34.9816 62.8188 34.2878C63.5889 33.5629 63.974 32.7124 63.974 31.7363C63.2491 31.1587 62.2383 30.8699 60.9416 30.8699C59.9972 30.8699 59.2097 31.0975 58.5792 31.5529C57.9424 32.0149 57.6261 32.5767 57.6261 33.251Z" fill="#5F6368"/>
<path d="M78.9584 24.6592L71.1955 42.4998H68.7955L71.6763 36.2574L66.5718 24.6592H69.0988L72.7882 33.5542H72.8387L76.4271 24.6592H78.9584Z" fill="#5F6368"/>
<path d="M36.3808 28.1335C36.3817 27.4251 36.3218 26.7178 36.2017 26.0195H26.397V30.0237H32.0127C31.8978 30.6633 31.6546 31.2729 31.2977 31.8159C30.9408 32.3589 30.4777 32.824 29.9362 33.1832V35.7824H33.2877C35.2501 33.9731 36.3808 31.2974 36.3808 28.1335Z" fill="#4285F4"/>
<path d="M26.3967 38.2937C29.2024 38.2937 31.5648 37.3724 33.2875 35.784L29.9359 33.1848C29.0031 33.8173 27.8017 34.1783 26.3967 34.1783C23.6848 34.1783 21.3831 32.3502 20.56 29.8867H17.1074V32.5653C17.9728 34.2873 19.2997 35.7348 20.94 36.7464C22.5803 37.7579 24.4695 38.2936 26.3967 38.2937Z" fill="#34A853"/>
<path d="M20.5602 29.8868C20.125 28.5959 20.125 27.198 20.5602 25.9071V23.2285H17.1076C16.3796 24.6771 16.0005 26.2758 16.0005 27.897C16.0005 29.5182 16.3796 31.1169 17.1076 32.5654L20.5602 29.8868Z" fill="#FBBC04"/>
<path d="M26.3967 21.6156C27.8794 21.5914 29.312 22.1516 30.385 23.1751L33.3524 20.2077C31.4708 18.4403 28.978 17.47 26.3967 17.5002C24.4695 17.5003 22.5803 18.036 20.94 19.0475C19.2997 20.0591 17.9728 21.5066 17.1074 23.2285L20.56 25.9072C21.3831 23.4437 23.6848 21.6156 26.3967 21.6156Z" fill="#EA4335"/>
</g>
<defs>
<clipPath id="clip0_703_814">
<rect width="62.9541" height="25" fill="white" transform="translate(16 17.5)"/>
</clipPath>
</defs>
</svg>
